<svg width="263" height="500" viewBox="0 0 263 500" fill="none" xmlns="http://www.w3.org/2000/svg">
<rect width="263" height="500" fill="#EDF3F8"/>
<g clip-path="url(#clip0_0_1)">
<rect width="1440" height="3066" transform="translate(-1008 -1793)" fill="#EDF3F8"/>
<g opacity="0.15">
<circle cx="432" cy="250" r="390" fill="#36536B"/>
<circle cx="432" cy="250" r="390" fill="#36536B"/>
<mask id="mask0_0_1" style="mask-type:luminance" maskUnits="userSpaceOnUse" x="42" y="-140" width="780" height="780">
<circle cx="432" cy="250" r="390" fill="white"/>
</mask>
<g mask="url(#mask0_0_1)">
</g>
</g>
<g filter="url(#filter0_d_0_1)">
<path fill-rule="evenodd" clip-rule="evenodd" d="M35.776 0.569473H227.009C245.35 0.569473 260.217 14.8048 260.217 32.365V467.635C260.217 485.195 245.35 499.431 227.009 499.431H35.776C17.4357 499.431 2.56787 485.195 2.56787 467.635V32.365C2.56787 14.8048 17.4357 0.569473 35.776 0.569473Z" fill="#213648"/>
</g>
<path opacity="0.595562" fill-rule="evenodd" clip-rule="evenodd" d="M227.749 0H34.9226C25.92 0.548956 17.6174 4.65694 10.0146 12.3239C14.9041 8.0559 23.6249 2.34456 35.1546 2.34456C35.1546 2.34456 219.83 2.34456 227.517 2.34456C239.046 2.34456 247.767 8.0559 252.656 12.3239C245.054 4.65694 236.751 0.548956 227.749 0Z" fill="url(#paint0_linear_0_1)" fill-opacity="0.65"/>
<path opacity="0.75" fill-rule="evenodd" clip-rule="evenodd" d="M254.999 462.671V34.9818C254.999 23.5065 250.782 19.2644 248.266 16.5405C245.75 13.8165 245.643 12.4272 249.258 14.4838C252.873 16.5405 260.103 22.5305 260.103 34.9818V462.671C260.103 475.122 252.873 481.112 249.258 483.169C245.643 485.225 245.75 483.836 248.266 481.112C250.782 478.388 254.999 474.146 254.999 462.671Z" fill="url(#paint1_linear_0_1)"/>
<path opacity="0.75" fill-rule="evenodd" clip-rule="evenodd" d="M7.67196 462.671V34.9818C7.67196 23.5065 11.8894 19.2644 14.4053 16.5405C16.9212 13.8165 17.0283 12.4272 13.4134 14.4838C9.79843 16.5405 2.56798 22.5305 2.56798 34.9818V462.671C2.56798 475.122 9.79843 481.112 13.4134 483.169C17.0283 485.225 16.9212 483.836 14.4053 481.112C11.8894 478.388 7.67196 474.146 7.67196 462.671Z" fill="url(#paint2_linear_0_1)"/>
<path fill-rule="evenodd" clip-rule="evenodd" d="M0 103.557C0 102.452 0.89543 101.557 2 101.557H2.96454C4.06911 101.557 4.96454 102.452 4.96454 103.557V163.907C4.96454 165.012 4.06911 165.907 2.96454 165.907H2C0.89543 165.907 0 165.012 0 163.907V103.557Z" fill="#2E423C"/>
<path fill-rule="evenodd" clip-rule="evenodd" d="M257.535 156.043C257.535 154.939 258.431 154.043 259.535 154.043H260.5C261.605 154.043 262.5 154.939 262.5 156.043V198.993C262.5 200.098 261.605 200.993 260.5 200.993H259.535C258.431 200.993 257.535 200.098 257.535 198.993V156.043Z" fill="#2E423C"/>
<path fill-rule="evenodd" clip-rule="evenodd" d="M108.676 12.4445L34.2698 12.4445C23.1653 12.4445 15.0742 20.0078 15.0742 29.8859V452.276C15.0742 465.156 27.5765 476.567 41.7134 476.567H221.046C234.664 476.567 247.686 465.067 247.686 452.276V31.0276C247.686 19.188 238.896 12.5149 228.49 12.4445L152.904 12.4445C152.618 12.4914 147.425 14.6262 145.231 20.0078C143.036 25.3893 138.621 29.6793 133.787 29.6793H128.172C125.874 29.6793 119.824 27.4496 116.76 20.0078C113.697 12.5659 108.963 12.4914 108.676 12.4445Z" fill="#36536B"/>
<mask id="mask1_0_1" style="mask-type:luminance" maskUnits="userSpaceOnUse" x="15" y="12" width="233" height="465">
<path fill-rule="evenodd" clip-rule="evenodd" d="M108.676 12.4445L34.2698 12.4445C23.1653 12.4445 15.0742 20.0078 15.0742 29.8859V452.276C15.0742 465.156 27.5765 476.567 41.7134 476.567H221.046C234.664 476.567 247.686 465.067 247.686 452.276V31.0276C247.686 19.188 238.896 12.5149 228.49 12.4445L152.904 12.4445C152.618 12.4914 147.425 14.6262 145.231 20.0078C143.036 25.3893 138.621 29.6793 133.787 29.6793H128.172C125.874 29.6793 119.824 27.4496 116.76 20.0078C113.697 12.5659 108.963 12.4914 108.676 12.4445Z" fill="white"/>
</mask>
<g mask="url(#mask1_0_1)">
</g>
<g filter="url(#filter1_d_0_1)">
<rect x="43" y="142" width="176" height="191" rx="5" fill="#FBFCFE"/>
</g>
<g clip-path="url(#clip1_0_1)">
<path d="M76.5975 260V250.601H79.776C80.4476 250.601 81.0456 250.714 81.57 250.939C82.0943 251.164 82.506 251.498 82.805 251.94C83.1083 252.382 83.26 252.926 83.26 253.571C83.26 254.195 83.1191 254.728 82.8375 255.17C82.5601 255.612 82.1723 255.948 81.674 256.178C81.1756 256.408 80.5971 256.522 79.9385 256.522H77.8325V260H76.5975ZM77.826 255.508H79.9125C80.5581 255.508 81.0825 255.329 81.4855 254.969C81.8885 254.609 82.09 254.12 82.09 253.5C82.09 252.876 81.882 252.404 81.466 252.083C81.05 251.762 80.5126 251.602 79.854 251.602H77.826V255.508ZM86.2598 260.13C85.8265 260.13 85.443 260.054 85.1093 259.902C84.7757 259.746 84.5135 259.523 84.3228 259.233C84.1365 258.943 84.0433 258.592 84.0433 258.18C84.0433 257.435 84.3033 256.88 84.8233 256.516C85.3433 256.152 86.1775 255.957 87.3258 255.931L88.5283 255.898V255.372C88.5283 254.96 88.4048 254.635 88.1578 254.397C87.9108 254.154 87.5273 254.033 87.0073 254.033C86.6217 254.037 86.2815 254.128 85.9868 254.306C85.6965 254.484 85.508 254.774 85.4213 255.177H84.3618C84.3878 254.739 84.5113 254.371 84.7323 254.072C84.9533 253.769 85.261 253.539 85.6553 253.383C86.054 253.227 86.5242 253.149 87.0658 253.149C87.6508 253.149 88.1362 253.231 88.5218 253.396C88.9118 253.561 89.2022 253.803 89.3928 254.124C89.5878 254.445 89.6853 254.839 89.6853 255.307V260H88.6583L88.5738 258.739C88.3138 259.263 87.9823 259.627 87.5793 259.831C87.1807 260.03 86.7408 260.13 86.2598 260.13ZM86.6238 259.265C86.8492 259.265 87.0723 259.224 87.2933 259.142C87.5187 259.06 87.7245 258.949 87.9108 258.81C88.0972 258.667 88.2445 258.509 88.3528 258.336C88.4655 258.158 88.524 257.976 88.5283 257.79V256.639L87.5273 256.659C87.016 256.668 86.587 256.72 86.2403 256.815C85.898 256.91 85.6402 257.06 85.4668 257.263C85.2978 257.467 85.2133 257.734 85.2133 258.063C85.2133 258.44 85.3433 258.735 85.6033 258.947C85.8677 259.159 86.2078 259.265 86.6238 259.265ZM92.0859 262.145C91.6916 262.145 91.4208 262.117 91.2734 262.061C91.1261 262.004 91.0524 261.976 91.0524 261.976V261.196L91.7349 261.209C91.9863 261.218 92.1943 261.2 92.3589 261.157C92.5236 261.114 92.6558 261.055 92.7554 260.982C92.8551 260.908 92.9309 260.826 92.9829 260.735C93.0393 260.644 93.0848 260.557 93.1194 260.475L93.3534 259.837L90.7274 253.279H91.9429L93.9254 258.466L95.8949 253.279H97.0714L94.2374 260.507C94.0641 260.932 93.8691 261.263 93.6524 261.502C93.4401 261.74 93.2018 261.907 92.9374 262.002C92.6774 262.097 92.3936 262.145 92.0859 262.145ZM98.2546 260V253.279H99.4116V254.254C99.5979 253.959 99.8536 253.701 100.179 253.48C100.504 253.259 100.926 253.149 101.446 253.149C101.689 253.149 101.936 253.19 102.187 253.272C102.443 253.355 102.677 253.478 102.889 253.643C103.101 253.808 103.266 254.009 103.383 254.247C103.591 253.918 103.873 253.654 104.228 253.454C104.583 253.251 104.984 253.149 105.431 253.149C105.665 253.149 105.909 253.186 106.165 253.259C106.421 253.329 106.657 253.454 106.874 253.636C107.095 253.814 107.274 254.063 107.413 254.384C107.552 254.7 107.621 255.108 107.621 255.606V260H106.412V255.723C106.412 255.316 106.347 255.001 106.217 254.78C106.087 254.555 105.916 254.397 105.704 254.306C105.496 254.215 105.272 254.169 105.034 254.169C104.826 254.169 104.605 254.211 104.371 254.293C104.137 254.375 103.938 254.514 103.773 254.709C103.608 254.904 103.526 255.17 103.526 255.508V260H102.33V255.372C102.33 255.108 102.259 254.887 102.116 254.709C101.977 254.531 101.801 254.397 101.589 254.306C101.381 254.215 101.173 254.169 100.965 254.169C100.735 254.169 100.504 254.215 100.27 254.306C100.04 254.397 99.8449 254.542 99.6846 254.741C99.5286 254.936 99.4506 255.192 99.4506 255.508V260H98.2546ZM110.261 256.919C110.261 257.344 110.33 257.729 110.469 258.076C110.612 258.418 110.826 258.691 111.112 258.895C111.402 259.099 111.764 259.2 112.198 259.2C112.627 259.2 112.995 259.101 113.303 258.901C113.615 258.702 113.814 258.414 113.901 258.037H115.038C114.956 258.492 114.774 258.875 114.492 259.188C114.21 259.499 113.87 259.736 113.472 259.896C113.073 260.052 112.657 260.13 112.224 260.13C111.595 260.13 111.043 259.994 110.566 259.72C110.089 259.447 109.717 259.055 109.448 258.544C109.179 258.033 109.045 257.419 109.045 256.704C109.045 255.998 109.166 255.378 109.409 254.845C109.652 254.312 110.003 253.896 110.462 253.597C110.926 253.298 111.483 253.149 112.133 253.149C112.765 253.149 113.3 253.285 113.738 253.558C114.176 253.831 114.507 254.217 114.733 254.715C114.962 255.209 115.077 255.797 115.077 256.477V256.919H110.261ZM110.267 256.106H113.92C113.92 255.721 113.855 255.374 113.725 255.066C113.595 254.754 113.396 254.51 113.127 254.332C112.863 254.15 112.529 254.059 112.126 254.059C111.706 254.059 111.357 254.161 111.08 254.364C110.807 254.564 110.601 254.822 110.462 255.138C110.328 255.45 110.263 255.773 110.267 256.106ZM116.628 260V253.279H117.791V254.254C117.9 254.068 118.049 253.892 118.24 253.727C118.435 253.563 118.669 253.431 118.942 253.331C119.219 253.231 119.538 253.181 119.897 253.181C120.322 253.181 120.712 253.266 121.067 253.435C121.427 253.604 121.713 253.868 121.925 254.228C122.142 254.583 122.25 255.043 122.25 255.606V260H121.048V255.723C121.048 255.199 120.909 254.811 120.632 254.559C120.359 254.304 120.003 254.176 119.566 254.176C119.262 254.176 118.979 254.226 118.714 254.325C118.45 254.421 118.235 254.568 118.071 254.767C117.906 254.962 117.824 255.209 117.824 255.508V260H116.628ZM127.128 254.156H125.613V258.336C125.613 258.574 125.637 258.75 125.685 258.862C125.737 258.971 125.821 259.04 125.938 259.07C126.06 259.101 126.224 259.116 126.432 259.116H127.167V259.922C127.085 259.952 126.959 259.978 126.79 260C126.625 260.022 126.419 260.033 126.172 260.033C125.709 260.033 125.349 259.97 125.093 259.844C124.838 259.718 124.658 259.532 124.554 259.285C124.454 259.038 124.404 258.735 124.404 258.375V254.156H123.312V253.279H124.437L124.729 251.322H125.613V253.272H127.128V254.156ZM134.158 260.13C133.538 260.13 132.996 259.998 132.533 259.733C132.069 259.465 131.709 259.073 131.454 258.557C131.198 258.041 131.07 257.411 131.07 256.665C131.07 255.963 131.189 255.348 131.428 254.819C131.666 254.291 132.015 253.881 132.474 253.591C132.938 253.296 133.499 253.149 134.158 253.149C134.777 253.149 135.315 253.285 135.77 253.558C136.229 253.827 136.584 254.224 136.836 254.748C137.087 255.272 137.213 255.911 137.213 256.665C137.213 257.35 137.096 257.952 136.862 258.472C136.632 258.992 136.29 259.4 135.835 259.694C135.384 259.985 134.825 260.13 134.158 260.13ZM134.158 259.181C134.561 259.181 134.901 259.079 135.178 258.875C135.455 258.672 135.666 258.379 135.809 257.998C135.952 257.617 136.023 257.164 136.023 256.639C136.023 256.158 135.96 255.727 135.835 255.346C135.709 254.96 135.507 254.655 135.23 254.429C134.957 254.204 134.6 254.091 134.158 254.091C133.75 254.091 133.406 254.193 133.124 254.397C132.842 254.596 132.628 254.887 132.481 255.268C132.338 255.649 132.266 256.106 132.266 256.639C132.266 257.112 132.331 257.541 132.461 257.926C132.591 258.312 132.795 258.618 133.072 258.843C133.349 259.068 133.711 259.181 134.158 259.181ZM142.228 253.279V254.156H140.596V260H139.387V254.156H137.97V253.279H139.387V252.239C139.387 251.706 139.524 251.301 139.797 251.023C140.07 250.742 140.477 250.601 141.019 250.601H142.286L142.293 251.452H141.285C141.012 251.452 140.826 251.526 140.726 251.673C140.627 251.821 140.577 252.044 140.577 252.343V253.279H142.228ZM150.11 260.13C148.984 260.13 148.069 259.905 147.367 259.454C146.665 258.999 146.262 258.299 146.158 257.354L148.134 257.315C148.238 257.744 148.461 258.072 148.804 258.297C149.15 258.518 149.584 258.628 150.104 258.628C150.416 258.628 150.691 258.579 150.929 258.479C151.172 258.375 151.363 258.236 151.501 258.063C151.64 257.885 151.709 257.684 151.709 257.458C151.709 257.112 151.599 256.854 151.378 256.685C151.157 256.512 150.817 256.373 150.357 256.269L148.817 255.938C148.102 255.794 147.528 255.511 147.094 255.086C146.665 254.657 146.446 254.083 146.438 253.363C146.433 252.774 146.592 252.265 146.912 251.836C147.237 251.403 147.677 251.069 148.232 250.835C148.791 250.601 149.417 250.484 150.11 250.484C150.821 250.484 151.434 250.612 151.95 250.867C152.47 251.119 152.868 251.459 153.146 251.888C153.427 252.313 153.564 252.783 153.555 253.298L151.638 253.331C151.577 252.915 151.438 252.588 151.222 252.349C151.005 252.111 150.645 251.992 150.143 251.992C149.883 251.992 149.651 252.02 149.447 252.076C149.244 252.133 149.068 252.213 148.921 252.317C148.773 252.417 148.661 252.536 148.583 252.674C148.509 252.813 148.472 252.969 148.472 253.142C148.472 253.415 148.563 253.632 148.745 253.792C148.932 253.948 149.28 254.094 149.792 254.228L151.306 254.598C152.16 254.802 152.775 255.151 153.152 255.645C153.534 256.139 153.724 256.739 153.724 257.445C153.724 257.987 153.575 258.459 153.276 258.862C152.981 259.265 152.563 259.577 152.021 259.798C151.48 260.02 150.843 260.13 150.11 260.13ZM149.298 249.255H150.942V250.945H149.298V249.255ZM149.265 259.551H150.903V261.242H149.265V259.551ZM158.287 260.143C157.702 260.143 157.156 260.03 156.649 259.805C156.142 259.58 155.728 259.263 155.407 258.856C155.087 258.444 154.907 257.963 154.868 257.413H156.675C156.753 257.777 156.926 258.074 157.195 258.303C157.464 258.529 157.802 258.641 158.209 258.641C158.66 258.641 159.054 258.535 159.392 258.323C159.734 258.111 159.99 257.773 160.159 257.309C160.332 256.845 160.393 256.239 160.341 255.489C160.22 255.719 160.051 255.92 159.834 256.093C159.622 256.262 159.372 256.395 159.086 256.49C158.8 256.581 158.482 256.626 158.131 256.626C157.494 256.626 156.928 256.507 156.434 256.269C155.945 256.026 155.559 255.684 155.277 255.242C155 254.796 154.861 254.267 154.861 253.656C154.861 253.041 155.009 252.492 155.303 252.011C155.598 251.53 156.01 251.153 156.538 250.88C157.067 250.607 157.687 250.471 158.397 250.471C159.195 250.471 159.882 250.662 160.458 251.043C161.039 251.42 161.483 251.957 161.79 252.655C162.102 253.348 162.258 254.165 162.258 255.105C162.258 256.228 162.098 257.164 161.777 257.913C161.461 258.659 161.006 259.218 160.412 259.59C159.819 259.959 159.11 260.143 158.287 260.143ZM158.456 255.118C158.72 255.118 158.976 255.06 159.223 254.943C159.474 254.822 159.68 254.67 159.84 254.488C160.001 254.306 160.081 254.117 160.081 253.922C160.085 253.502 160.018 253.142 159.879 252.843C159.745 252.54 159.554 252.308 159.307 252.148C159.065 251.988 158.781 251.907 158.456 251.907C158.157 251.907 157.89 251.977 157.656 252.115C157.422 252.254 157.238 252.449 157.104 252.7C156.97 252.952 156.902 253.242 156.902 253.571C156.902 254.061 157.045 254.442 157.331 254.715C157.617 254.984 157.992 255.118 158.456 255.118ZM163.467 260V259.064V258.583C163.467 258.106 163.556 257.695 163.734 257.348C163.911 256.997 164.145 256.694 164.436 256.438C164.73 256.178 165.051 255.95 165.398 255.755C165.749 255.56 166.1 255.376 166.451 255.203C166.802 255.03 167.122 254.856 167.413 254.683C167.707 254.505 167.944 254.308 168.121 254.091C168.299 253.875 168.388 253.619 168.388 253.324C168.388 252.947 168.256 252.64 167.991 252.401C167.731 252.163 167.374 252.044 166.919 252.044C166.446 252.044 166.046 252.18 165.716 252.453C165.387 252.726 165.183 253.138 165.105 253.688H163.292C163.3 253.09 163.439 252.549 163.708 252.063C163.981 251.574 164.388 251.186 164.93 250.9C165.471 250.614 166.152 250.471 166.971 250.471C167.673 250.471 168.277 250.59 168.784 250.828C169.296 251.067 169.69 251.398 169.967 251.823C170.245 252.248 170.383 252.744 170.383 253.311C170.383 253.784 170.297 254.191 170.123 254.533C169.95 254.876 169.72 255.168 169.434 255.411C169.148 255.654 168.834 255.866 168.492 256.048C168.149 256.23 167.807 256.399 167.465 256.555C167.127 256.711 166.815 256.871 166.529 257.036C166.243 257.196 166.013 257.378 165.84 257.582C165.666 257.786 165.58 258.03 165.58 258.316V258.401H170.37V260H163.467ZM175.084 250.471C176.202 250.471 177.084 250.889 177.729 251.725C178.375 252.557 178.698 253.756 178.698 255.32C178.698 256.876 178.379 258.069 177.742 258.901C177.105 259.729 176.219 260.143 175.084 260.143C173.944 260.143 173.053 259.729 172.412 258.901C171.775 258.074 171.457 256.882 171.457 255.326C171.457 254.286 171.604 253.405 171.899 252.681C172.193 251.957 172.611 251.409 173.153 251.036C173.695 250.659 174.338 250.471 175.084 250.471ZM175.084 258.589C175.643 258.589 176.052 258.34 176.312 257.842C176.572 257.339 176.702 256.501 176.702 255.326C176.702 254.126 176.57 253.266 176.306 252.746C176.041 252.226 175.632 251.966 175.077 251.966C174.522 251.966 174.109 252.228 173.836 252.752C173.567 253.277 173.433 254.135 173.433 255.326C173.433 256.496 173.567 257.333 173.836 257.835C174.104 258.338 174.52 258.589 175.084 258.589ZM183.955 250.601H185.821V256.328H187.27V257.92H185.821V260H183.994L184.001 257.92H179.672V256.36L183.955 250.601ZM181.427 256.328H184.001V252.882L181.427 256.328ZM83.3054 271.279V278H82.1419V271.279H83.3054ZM83.3314 268.607V269.855H82.1029V268.607H83.3314ZM87.706 278.13C87.238 278.13 86.8025 278.059 86.3995 277.915C86.0008 277.768 85.6693 277.541 85.405 277.233C85.1406 276.921 84.9738 276.524 84.9045 276.043H85.9965C86.0571 276.308 86.1655 276.529 86.3215 276.706C86.4818 276.88 86.6811 277.012 86.9195 277.103C87.1578 277.19 87.4178 277.233 87.6995 277.233C88.1501 277.233 88.5141 277.148 88.7915 276.979C89.0688 276.81 89.2075 276.55 89.2075 276.199C89.2075 275.952 89.1338 275.755 88.9865 275.608C88.8435 275.456 88.6203 275.346 88.317 275.276L86.926 274.932C86.3843 274.802 85.951 274.598 85.626 274.321C85.301 274.044 85.1385 273.656 85.1385 273.157C85.1341 272.763 85.2273 272.416 85.418 272.117C85.6086 271.818 85.8946 271.582 86.276 271.409C86.6573 271.236 87.1318 271.149 87.6995 271.149C88.4275 271.149 89.0146 271.314 89.461 271.643C89.9116 271.968 90.1456 272.447 90.163 273.079H89.1035C89.0601 272.759 88.915 272.505 88.668 272.319C88.4253 272.128 88.0981 272.033 87.6865 272.033C87.2575 272.033 86.9086 272.12 86.64 272.293C86.3713 272.462 86.237 272.726 86.237 273.086C86.237 273.324 86.3323 273.513 86.523 273.651C86.7136 273.786 86.9953 273.898 87.368 273.989L88.7135 274.328C89.0255 274.41 89.2811 274.518 89.4805 274.652C89.6841 274.787 89.8445 274.936 89.9615 275.101C90.0828 275.266 90.1673 275.439 90.215 275.621C90.267 275.799 90.293 275.97 90.293 276.134C90.293 276.546 90.189 276.901 89.981 277.2C89.7773 277.495 89.4826 277.725 89.097 277.889C88.7156 278.05 88.252 278.13 87.706 278.13ZM97.2311 271.149C97.7121 271.149 98.1454 271.242 98.5311 271.428C98.9168 271.61 99.2309 271.87 99.4736 272.208C99.7206 272.546 99.8744 272.945 99.9351 273.404H98.8691C98.8301 273.17 98.7391 272.956 98.5961 272.761C98.4574 272.566 98.2733 272.41 98.0436 272.293C97.8139 272.176 97.5453 272.117 97.2376 272.117C96.6613 272.117 96.1933 272.325 95.8336 272.741C95.4739 273.157 95.2941 273.794 95.2941 274.652C95.2941 275.428 95.4588 276.05 95.7881 276.518C96.1218 276.982 96.6114 277.213 97.2571 277.213C97.5648 277.213 97.8313 277.155 98.0566 277.038C98.2863 276.917 98.4704 276.758 98.6091 276.563C98.7478 276.364 98.8366 276.152 98.8756 275.926H99.9221C99.8658 276.377 99.7141 276.767 99.4671 277.096C99.2201 277.426 98.9038 277.681 98.5181 277.863C98.1368 278.041 97.7078 278.13 97.2311 278.13C96.6288 278.13 96.0936 277.998 95.6256 277.733C95.1619 277.469 94.7979 277.079 94.5336 276.563C94.2693 276.048 94.1371 275.415 94.1371 274.665C94.1371 273.963 94.2563 273.35 94.4946 272.826C94.7373 272.297 95.0883 271.886 95.5476 271.591C96.0113 271.296 96.5724 271.149 97.2311 271.149ZM104.132 278.13C103.513 278.13 102.971 277.998 102.507 277.733C102.044 277.465 101.684 277.073 101.428 276.557C101.173 276.041 101.045 275.411 101.045 274.665C101.045 273.963 101.164 273.348 101.402 272.819C101.641 272.291 101.99 271.881 102.449 271.591C102.913 271.296 103.474 271.149 104.132 271.149C104.752 271.149 105.289 271.285 105.744 271.558C106.204 271.827 106.559 272.224 106.81 272.748C107.062 273.272 107.187 273.911 107.187 274.665C107.187 275.35 107.07 275.952 106.836 276.472C106.607 276.992 106.264 277.4 105.809 277.694C105.359 277.985 104.8 278.13 104.132 278.13ZM104.132 277.181C104.535 277.181 104.876 277.079 105.153 276.875C105.43 276.672 105.64 276.379 105.783 275.998C105.926 275.617 105.998 275.164 105.998 274.639C105.998 274.158 105.935 273.727 105.809 273.346C105.684 272.96 105.482 272.655 105.205 272.429C104.932 272.204 104.574 272.091 104.132 272.091C103.725 272.091 103.381 272.193 103.099 272.397C102.817 272.596 102.603 272.887 102.455 273.268C102.312 273.649 102.241 274.106 102.241 274.639C102.241 275.112 102.306 275.541 102.436 275.926C102.566 276.312 102.77 276.618 103.047 276.843C103.324 277.068 103.686 277.181 104.132 277.181ZM108.661 278V271.279H109.818V272.254C110.004 271.959 110.26 271.701 110.585 271.48C110.91 271.259 111.332 271.149 111.852 271.149C112.095 271.149 112.342 271.19 112.593 271.272C112.849 271.355 113.083 271.478 113.295 271.643C113.508 271.808 113.672 272.009 113.789 272.247C113.997 271.918 114.279 271.654 114.634 271.454C114.99 271.251 115.39 271.149 115.837 271.149C116.071 271.149 116.316 271.186 116.571 271.259C116.827 271.329 117.063 271.454 117.28 271.636C117.501 271.814 117.681 272.063 117.819 272.384C117.958 272.7 118.027 273.108 118.027 273.606V278H116.818V273.723C116.818 273.316 116.753 273.001 116.623 272.78C116.493 272.555 116.322 272.397 116.11 272.306C115.902 272.215 115.679 272.169 115.44 272.169C115.232 272.169 115.011 272.211 114.777 272.293C114.543 272.375 114.344 272.514 114.179 272.709C114.015 272.904 113.932 273.17 113.932 273.508V278H112.736V273.372C112.736 273.108 112.665 272.887 112.522 272.709C112.383 272.531 112.208 272.397 111.995 272.306C111.787 272.215 111.579 272.169 111.371 272.169C111.142 272.169 110.91 272.215 110.676 272.306C110.446 272.397 110.251 272.542 110.091 272.741C109.935 272.936 109.857 273.192 109.857 273.508V278H108.661ZM119.809 280.093V271.279H121.005L121.018 272.449C121.096 272.31 121.195 272.165 121.317 272.013C121.442 271.862 121.594 271.721 121.772 271.591C121.954 271.461 122.164 271.355 122.402 271.272C122.645 271.19 122.92 271.149 123.228 271.149C123.765 271.149 124.237 271.272 124.645 271.519C125.056 271.762 125.377 272.135 125.607 272.637C125.836 273.14 125.951 273.777 125.951 274.548C125.951 275.32 125.839 275.972 125.613 276.505C125.392 277.034 125.072 277.437 124.651 277.714C124.231 277.991 123.724 278.13 123.13 278.13C122.831 278.13 122.565 278.087 122.331 278C122.101 277.918 121.9 277.809 121.726 277.675C121.557 277.536 121.414 277.389 121.297 277.233C121.185 277.077 121.091 276.927 121.018 276.784V280.093H119.809ZM122.903 277.194C123.457 277.194 123.91 276.984 124.261 276.563C124.612 276.139 124.788 275.48 124.788 274.587C124.788 273.82 124.627 273.212 124.307 272.761C123.986 272.31 123.518 272.085 122.903 272.085C122.279 272.085 121.806 272.317 121.486 272.78C121.165 273.24 121.005 273.842 121.005 274.587C121.005 275.068 121.076 275.506 121.219 275.9C121.362 276.295 121.575 276.609 121.856 276.843C122.138 277.077 122.487 277.194 122.903 277.194ZM129.124 278.085C128.76 278.085 128.465 278.035 128.24 277.935C128.019 277.835 127.848 277.701 127.727 277.532C127.61 277.363 127.529 277.17 127.486 276.953C127.447 276.732 127.428 276.505 127.428 276.271V268.341H128.611V276.154C128.611 276.492 128.676 276.745 128.806 276.914C128.94 277.083 129.126 277.177 129.365 277.194L129.729 277.2V277.98C129.629 278.011 129.525 278.035 129.417 278.052C129.308 278.074 129.211 278.085 129.124 278.085ZM131.943 274.919C131.943 275.344 132.013 275.729 132.151 276.076C132.294 276.418 132.509 276.691 132.795 276.895C133.085 277.099 133.447 277.2 133.88 277.2C134.309 277.2 134.678 277.101 134.985 276.901C135.297 276.702 135.497 276.414 135.583 276.037H136.721C136.638 276.492 136.456 276.875 136.175 277.188C135.893 277.499 135.553 277.736 135.154 277.896C134.756 278.052 134.34 278.13 133.906 278.13C133.278 278.13 132.725 277.994 132.249 277.72C131.772 277.447 131.399 277.055 131.131 276.544C130.862 276.033 130.728 275.419 130.728 274.704C130.728 273.998 130.849 273.378 131.092 272.845C131.334 272.312 131.685 271.896 132.145 271.597C132.608 271.298 133.165 271.149 133.815 271.149C134.448 271.149 134.983 271.285 135.421 271.558C135.858 271.831 136.19 272.217 136.415 272.715C136.645 273.209 136.76 273.797 136.76 274.477V274.919H131.943ZM131.95 274.106H135.603C135.603 273.721 135.538 273.374 135.408 273.066C135.278 272.754 135.078 272.51 134.81 272.332C134.545 272.15 134.212 272.059 133.809 272.059C133.388 272.059 133.04 272.161 132.762 272.364C132.489 272.564 132.283 272.822 132.145 273.138C132.01 273.45 131.945 273.773 131.95 274.106ZM141.509 272.156H139.995V276.336C139.995 276.574 140.019 276.75 140.066 276.862C140.118 276.971 140.203 277.04 140.32 277.07C140.441 277.101 140.606 277.116 140.814 277.116H141.548V277.922C141.466 277.952 141.34 277.978 141.171 278C141.007 278.022 140.801 278.033 140.554 278.033C140.09 278.033 139.73 277.97 139.475 277.844C139.219 277.718 139.039 277.532 138.935 277.285C138.836 277.038 138.786 276.735 138.786 276.375V272.156H137.694V271.279H138.818L139.111 269.322H139.995V271.272H141.509V272.156ZM143.817 274.919C143.817 275.344 143.886 275.729 144.025 276.076C144.168 276.418 144.382 276.691 144.668 276.895C144.958 277.099 145.32 277.2 145.754 277.2C146.183 277.2 146.551 277.101 146.859 276.901C147.171 276.702 147.37 276.414 147.457 276.037H148.594C148.512 276.492 148.33 276.875 148.048 277.188C147.766 277.499 147.426 277.736 147.028 277.896C146.629 278.052 146.213 278.13 145.78 278.13C145.151 278.13 144.599 277.994 144.122 277.72C143.645 277.447 143.273 277.055 143.004 276.544C142.735 276.033 142.601 275.419 142.601 274.704C142.601 273.998 142.722 273.378 142.965 272.845C143.208 272.312 143.559 271.896 144.018 271.597C144.482 271.298 145.039 271.149 145.689 271.149C146.321 271.149 146.856 271.285 147.294 271.558C147.732 271.831 148.063 272.217 148.289 272.715C148.518 273.209 148.633 273.797 148.633 274.477V274.919H143.817ZM143.823 274.106H147.476C147.476 273.721 147.411 273.374 147.281 273.066C147.151 272.754 146.952 272.51 146.683 272.332C146.419 272.15 146.085 272.059 145.682 272.059C145.262 272.059 144.913 272.161 144.636 272.364C144.363 272.564 144.157 272.822 144.018 273.138C143.884 273.45 143.819 273.773 143.823 274.106ZM152.608 278.13C151.737 278.13 151.046 277.831 150.535 277.233C150.023 276.635 149.768 275.762 149.768 274.613C149.768 273.916 149.87 273.307 150.073 272.787C150.281 272.267 150.589 271.864 150.996 271.578C151.404 271.292 151.911 271.149 152.517 271.149C152.838 271.149 153.122 271.19 153.369 271.272C153.62 271.355 153.837 271.459 154.019 271.584C154.201 271.71 154.348 271.84 154.461 271.974C154.578 272.109 154.664 272.232 154.721 272.345V268.341H155.93V278H155.013L154.883 276.622C154.84 276.752 154.771 276.904 154.675 277.077C154.58 277.246 154.446 277.413 154.272 277.577C154.099 277.738 153.876 277.87 153.603 277.974C153.334 278.078 153.003 278.13 152.608 278.13ZM152.823 277.207C153.503 277.207 153.988 277.001 154.279 276.589C154.573 276.173 154.721 275.495 154.721 274.555C154.716 274.031 154.649 273.584 154.519 273.216C154.394 272.848 154.194 272.568 153.921 272.377C153.653 272.182 153.295 272.085 152.849 272.085C152.294 272.085 151.843 272.282 151.497 272.676C151.15 273.071 150.977 273.697 150.977 274.555C150.977 275.396 151.133 276.048 151.445 276.511C151.761 276.975 152.22 277.207 152.823 277.207ZM162.57 278.13C162.137 278.13 161.753 278.054 161.42 277.902C161.086 277.746 160.824 277.523 160.633 277.233C160.447 276.943 160.354 276.592 160.354 276.18C160.354 275.435 160.614 274.88 161.134 274.516C161.654 274.152 162.488 273.957 163.636 273.931L164.839 273.898V273.372C164.839 272.96 164.715 272.635 164.468 272.397C164.221 272.154 163.838 272.033 163.318 272.033C162.932 272.037 162.592 272.128 162.297 272.306C162.007 272.484 161.818 272.774 161.732 273.177H160.672C160.698 272.739 160.822 272.371 161.043 272.072C161.264 271.769 161.571 271.539 161.966 271.383C162.364 271.227 162.835 271.149 163.376 271.149C163.961 271.149 164.447 271.231 164.832 271.396C165.222 271.561 165.513 271.803 165.703 272.124C165.898 272.445 165.996 272.839 165.996 273.307V278H164.969L164.884 276.739C164.624 277.263 164.293 277.627 163.89 277.831C163.491 278.03 163.051 278.13 162.57 278.13ZM162.934 277.265C163.16 277.265 163.383 277.224 163.604 277.142C163.829 277.06 164.035 276.949 164.221 276.81C164.408 276.667 164.555 276.509 164.663 276.336C164.776 276.158 164.834 275.976 164.839 275.79V274.639L163.838 274.659C163.326 274.668 162.897 274.72 162.551 274.815C162.208 274.91 161.951 275.06 161.777 275.263C161.608 275.467 161.524 275.734 161.524 276.063C161.524 276.44 161.654 276.735 161.914 276.947C162.178 277.159 162.518 277.265 162.934 277.265ZM167.949 278V271.279H169.113V272.254C169.221 272.068 169.371 271.892 169.561 271.727C169.756 271.563 169.99 271.431 170.263 271.331C170.541 271.231 170.859 271.181 171.219 271.181C171.643 271.181 172.033 271.266 172.389 271.435C172.748 271.604 173.034 271.868 173.247 272.228C173.463 272.583 173.572 273.043 173.572 273.606V278H172.369V273.723C172.369 273.199 172.231 272.811 171.953 272.559C171.68 272.304 171.325 272.176 170.887 272.176C170.584 272.176 170.3 272.226 170.036 272.325C169.771 272.421 169.557 272.568 169.392 272.767C169.228 272.962 169.145 273.209 169.145 273.508V278H167.949ZM177.777 278.13C176.906 278.13 176.214 277.831 175.703 277.233C175.192 276.635 174.936 275.762 174.936 274.613C174.936 273.916 175.038 273.307 175.242 272.787C175.45 272.267 175.757 271.864 176.165 271.578C176.572 271.292 177.079 271.149 177.686 271.149C178.006 271.149 178.29 271.19 178.537 271.272C178.788 271.355 179.005 271.459 179.187 271.584C179.369 271.71 179.516 271.84 179.629 271.974C179.746 272.109 179.833 272.232 179.889 272.345V268.341H181.098V278H180.182L180.052 276.622C180.008 276.752 179.939 276.904 179.844 277.077C179.748 277.246 179.614 277.413 179.441 277.577C179.267 277.738 179.044 277.87 178.771 277.974C178.502 278.078 178.171 278.13 177.777 278.13ZM177.991 277.207C178.671 277.207 179.157 277.001 179.447 276.589C179.742 276.173 179.889 275.495 179.889 274.555C179.885 274.031 179.818 273.584 179.688 273.216C179.562 272.848 179.363 272.568 179.09 272.377C178.821 272.182 178.463 272.085 178.017 272.085C177.462 272.085 177.012 272.282 176.665 272.676C176.318 273.071 176.145 273.697 176.145 274.555C176.145 275.396 176.301 276.048 176.613 276.511C176.929 276.975 177.389 277.207 177.991 277.207ZM63.022 298.093V289.279H64.218L64.231 290.449C64.309 290.31 64.4087 290.165 64.53 290.013C64.6557 289.862 64.8074 289.721 64.985 289.591C65.167 289.461 65.3772 289.355 65.6155 289.272C65.8582 289.19 66.1334 289.149 66.441 289.149C66.9784 289.149 67.4507 289.272 67.858 289.519C68.2697 289.762 68.5904 290.135 68.82 290.637C69.0497 291.14 69.1645 291.777 69.1645 292.548C69.1645 293.32 69.0519 293.972 68.8265 294.505C68.6055 295.034 68.2849 295.437 67.8645 295.714C67.4442 295.991 66.9372 296.13 66.3435 296.13C66.0445 296.13 65.778 296.087 65.544 296C65.3144 295.918 65.1129 295.809 64.9395 295.675C64.7705 295.536 64.6275 295.389 64.5105 295.233C64.3979 295.077 64.3047 294.927 64.231 294.784V298.093H63.022ZM66.116 295.194C66.6707 295.194 67.1235 294.984 67.4745 294.563C67.8255 294.139 68.001 293.48 68.001 292.587C68.001 291.82 67.8407 291.212 67.52 290.761C67.1994 290.31 66.7314 290.085 66.116 290.085C65.492 290.085 65.0197 290.317 64.699 290.78C64.3784 291.24 64.218 291.842 64.218 292.587C64.218 293.068 64.2895 293.506 64.4325 293.9C64.5755 294.295 64.7879 294.609 65.0695 294.843C65.3512 295.077 65.7 295.194 66.116 295.194ZM70.6408 296V289.279H71.7848V290.572C71.8975 290.252 72.0556 289.987 72.2593 289.779C72.463 289.567 72.6948 289.409 72.9548 289.305C73.2191 289.201 73.4921 289.149 73.7738 289.149C73.8735 289.149 73.971 289.155 74.0663 289.169C74.1616 289.181 74.2353 289.203 74.2873 289.233V290.397C74.2223 290.367 74.1378 290.347 74.0338 290.338C73.9341 290.325 73.8496 290.319 73.7803 290.319C73.5116 290.302 73.2603 290.319 73.0263 290.371C72.7923 290.419 72.5865 290.503 72.4088 290.624C72.2311 290.746 72.0903 290.906 71.9863 291.105C71.8866 291.3 71.8368 291.539 71.8368 291.82V296H70.6408ZM78.1 296.13C77.4803 296.13 76.9387 295.998 76.475 295.733C76.0113 295.465 75.6517 295.073 75.396 294.557C75.1403 294.041 75.0125 293.411 75.0125 292.665C75.0125 291.963 75.1317 291.348 75.37 290.819C75.6083 290.291 75.9572 289.881 76.4165 289.591C76.8802 289.296 77.4413 289.149 78.1 289.149C78.7197 289.149 79.257 289.285 79.712 289.558C80.1713 289.827 80.5267 290.224 80.778 290.748C81.0293 291.272 81.155 291.911 81.155 292.665C81.155 293.35 81.038 293.952 80.804 294.472C80.5743 294.992 80.232 295.4 79.777 295.694C79.3263 295.985 78.7673 296.13 78.1 296.13ZM78.1 295.181C78.503 295.181 78.8432 295.079 79.1205 294.875C79.3978 294.672 79.608 294.379 79.751 293.998C79.894 293.617 79.9655 293.164 79.9655 292.639C79.9655 292.158 79.9027 291.727 79.777 291.346C79.6513 290.96 79.4498 290.655 79.1725 290.429C78.8995 290.204 78.542 290.091 78.1 290.091C77.6927 290.091 77.3482 290.193 77.0665 290.397C76.7848 290.596 76.5703 290.887 76.423 291.268C76.28 291.649 76.2085 292.106 76.2085 292.639C76.2085 293.112 76.2735 293.541 76.4035 293.926C76.5335 294.312 76.7372 294.618 77.0145 294.843C77.2918 295.068 77.6537 295.181 78.1 295.181ZM85.3063 289.149C85.7873 289.149 86.2206 289.242 86.6063 289.428C86.992 289.61 87.3061 289.87 87.5488 290.208C87.7958 290.546 87.9496 290.945 88.0103 291.404H86.9443C86.9053 291.17 86.8143 290.956 86.6713 290.761C86.5326 290.566 86.3485 290.41 86.1188 290.293C85.8891 290.176 85.6205 290.117 85.3128 290.117C84.7365 290.117 84.2685 290.325 83.9088 290.741C83.5491 291.157 83.3693 291.794 83.3693 292.652C83.3693 293.428 83.534 294.05 83.8633 294.518C84.197 294.982 84.6866 295.213 85.3323 295.213C85.64 295.213 85.9065 295.155 86.1318 295.038C86.3615 294.917 86.5456 294.758 86.6843 294.563C86.823 294.364 86.9118 294.152 86.9508 293.926H87.9973C87.941 294.377 87.7893 294.767 87.5423 295.096C87.2953 295.426 86.979 295.681 86.5933 295.863C86.212 296.041 85.783 296.13 85.3063 296.13C84.704 296.13 84.1688 295.998 83.7008 295.733C83.2371 295.469 82.8731 295.079 82.6088 294.563C82.3445 294.048 82.2123 293.415 82.2123 292.665C82.2123 291.963 82.3315 291.35 82.5698 290.826C82.8125 290.297 83.1635 289.886 83.6228 289.591C84.0865 289.296 84.6476 289.149 85.3063 289.149ZM90.3941 292.919C90.3941 293.344 90.4634 293.729 90.6021 294.076C90.7451 294.418 90.9596 294.691 91.2456 294.895C91.5359 295.099 91.8978 295.2 92.3311 295.2C92.7601 295.2 93.1284 295.101 93.4361 294.901C93.7481 294.702 93.9474 294.414 94.0341 294.037H95.1716C95.0893 294.492 94.9073 294.875 94.6256 295.188C94.3439 295.499 94.0038 295.736 93.6051 295.896C93.2064 296.052 92.7904 296.13 92.3571 296.13C91.7288 296.13 91.1763 295.994 90.6996 295.72C90.2229 295.447 89.8503 295.055 89.5816 294.544C89.3129 294.033 89.1786 293.419 89.1786 292.704C89.1786 291.998 89.2999 291.378 89.5426 290.845C89.7853 290.312 90.1363 289.896 90.5956 289.597C91.0593 289.298 91.6161 289.149 92.2661 289.149C92.8988 289.149 93.4339 289.285 93.8716 289.558C94.3093 289.831 94.6408 290.217 94.8661 290.715C95.0958 291.209 95.2106 291.797 95.2106 292.477V292.919H90.3941ZM90.4006 292.106H94.0536C94.0536 291.721 93.9886 291.374 93.8586 291.066C93.7286 290.754 93.5293 290.51 93.2606 290.332C92.9963 290.15 92.6626 290.059 92.2596 290.059C91.8393 290.059 91.4904 290.161 91.2131 290.364C90.9401 290.564 90.7343 290.822 90.5956 291.138C90.4613 291.45 90.3963 291.773 90.4006 292.106ZM99.096 296.13C98.628 296.13 98.1925 296.059 97.7895 295.915C97.3909 295.768 97.0594 295.541 96.795 295.233C96.5307 294.921 96.3639 294.524 96.2945 294.043H97.3865C97.4472 294.308 97.5555 294.529 97.7115 294.706C97.8719 294.88 98.0712 295.012 98.3095 295.103C98.5479 295.19 98.8079 295.233 99.0895 295.233C99.5402 295.233 99.9042 295.148 100.182 294.979C100.459 294.81 100.598 294.55 100.598 294.199C100.598 293.952 100.524 293.755 100.377 293.608C100.234 293.456 100.01 293.346 99.707 293.276L98.316 292.932C97.7744 292.802 97.341 292.598 97.016 292.321C96.691 292.044 96.5285 291.656 96.5285 291.157C96.5242 290.763 96.6174 290.416 96.808 290.117C96.9987 289.818 97.2847 289.582 97.666 289.409C98.0474 289.236 98.5219 289.149 99.0895 289.149C99.8175 289.149 100.405 289.314 100.851 289.643C101.302 289.968 101.536 290.447 101.553 291.079H100.494C100.45 290.759 100.305 290.505 100.058 290.319C99.8154 290.128 99.4882 290.033 99.0765 290.033C98.6475 290.033 98.2987 290.12 98.03 290.293C97.7614 290.462 97.627 290.726 97.627 291.086C97.627 291.324 97.7224 291.513 97.913 291.651C98.1037 291.786 98.3854 291.898 98.758 291.989L100.104 292.328C100.416 292.41 100.671 292.518 100.871 292.652C101.074 292.787 101.235 292.936 101.352 293.101C101.473 293.266 101.557 293.439 101.605 293.621C101.657 293.799 101.683 293.97 101.683 294.134C101.683 294.546 101.579 294.901 101.371 295.2C101.167 295.495 100.873 295.725 100.487 295.889C100.106 296.05 99.642 296.13 99.096 296.13ZM105.534 296.13C105.066 296.13 104.631 296.059 104.228 295.915C103.829 295.768 103.497 295.541 103.233 295.233C102.969 294.921 102.802 294.524 102.733 294.043H103.825C103.885 294.308 103.994 294.529 104.15 294.706C104.31 294.88 104.509 295.012 104.748 295.103C104.986 295.19 105.246 295.233 105.528 295.233C105.978 295.233 106.342 295.148 106.62 294.979C106.897 294.81 107.036 294.55 107.036 294.199C107.036 293.952 106.962 293.755 106.815 293.608C106.672 293.456 106.448 293.346 106.145 293.276L104.754 292.932C104.212 292.802 103.779 292.598 103.454 292.321C103.129 292.044 102.967 291.656 102.967 291.157C102.962 290.763 103.055 290.416 103.246 290.117C103.437 289.818 103.723 289.582 104.104 289.409C104.485 289.236 104.96 289.149 105.528 289.149C106.256 289.149 106.843 289.314 107.289 289.643C107.74 289.968 107.974 290.447 107.991 291.079H106.932C106.888 290.759 106.743 290.505 106.496 290.319C106.253 290.128 105.926 290.033 105.515 290.033C105.086 290.033 104.737 290.12 104.468 290.293C104.199 290.462 104.065 290.726 104.065 291.086C104.065 291.324 104.16 291.513 104.351 291.651C104.542 291.786 104.823 291.898 105.196 291.989L106.542 292.328C106.854 292.41 107.109 292.518 107.309 292.652C107.512 292.787 107.673 292.936 107.79 293.101C107.911 293.266 107.995 293.439 108.043 293.621C108.095 293.799 108.121 293.97 108.121 294.134C108.121 294.546 108.017 294.901 107.809 295.2C107.605 295.495 107.311 295.725 106.925 295.889C106.544 296.05 106.08 296.13 105.534 296.13ZM110.559 292.919C110.559 293.344 110.628 293.729 110.767 294.076C110.91 294.418 111.124 294.691 111.41 294.895C111.701 295.099 112.063 295.2 112.496 295.2C112.925 295.2 113.293 295.101 113.601 294.901C113.913 294.702 114.112 294.414 114.199 294.037H115.336C115.254 294.492 115.072 294.875 114.79 295.188C114.509 295.499 114.169 295.736 113.77 295.896C113.371 296.052 112.955 296.13 112.522 296.13C111.894 296.13 111.341 295.994 110.864 295.72C110.388 295.447 110.015 295.055 109.746 294.544C109.478 294.033 109.343 293.419 109.343 292.704C109.343 291.998 109.465 291.378 109.707 290.845C109.95 290.312 110.301 289.896 110.76 289.597C111.224 289.298 111.781 289.149 112.431 289.149C113.064 289.149 113.599 289.285 114.036 289.558C114.474 289.831 114.806 290.217 115.031 290.715C115.261 291.209 115.375 291.797 115.375 292.477V292.919H110.559ZM110.565 292.106H114.218C114.218 291.721 114.153 291.374 114.023 291.066C113.893 290.754 113.694 290.51 113.425 290.332C113.161 290.15 112.827 290.059 112.424 290.059C112.004 290.059 111.655 290.161 111.378 290.364C111.105 290.564 110.899 290.822 110.76 291.138C110.626 291.45 110.561 291.773 110.565 292.106ZM119.351 296.13C118.48 296.13 117.788 295.831 117.277 295.233C116.766 294.635 116.51 293.762 116.51 292.613C116.51 291.916 116.612 291.307 116.816 290.787C117.024 290.267 117.331 289.864 117.739 289.578C118.146 289.292 118.653 289.149 119.26 289.149C119.58 289.149 119.864 289.19 120.111 289.272C120.362 289.355 120.579 289.459 120.761 289.584C120.943 289.71 121.09 289.84 121.203 289.974C121.32 290.109 121.407 290.232 121.463 290.345V286.341H122.672V296H121.756L121.626 294.622C121.582 294.752 121.513 294.904 121.418 295.077C121.322 295.246 121.188 295.413 121.015 295.577C120.841 295.738 120.618 295.87 120.345 295.974C120.076 296.078 119.745 296.13 119.351 296.13ZM119.565 295.207C120.245 295.207 120.731 295.001 121.021 294.589C121.316 294.173 121.463 293.495 121.463 292.555C121.459 292.031 121.392 291.584 121.262 291.216C121.136 290.848 120.937 290.568 120.664 290.377C120.395 290.182 120.037 290.085 119.591 290.085C119.036 290.085 118.586 290.282 118.239 290.676C117.892 291.071 117.719 291.697 117.719 292.555C117.719 293.396 117.875 294.048 118.187 294.511C118.503 294.975 118.963 295.207 119.565 295.207ZM129.839 296.13C129.371 296.13 128.936 296.059 128.533 295.915C128.134 295.768 127.803 295.541 127.538 295.233C127.274 294.921 127.107 294.524 127.038 294.043H128.13C128.19 294.308 128.299 294.529 128.455 294.706C128.615 294.88 128.814 295.012 129.053 295.103C129.291 295.19 129.551 295.233 129.833 295.233C130.283 295.233 130.647 295.148 130.925 294.979C131.202 294.81 131.341 294.55 131.341 294.199C131.341 293.952 131.267 293.755 131.12 293.608C130.977 293.456 130.754 293.346 130.45 293.276L129.059 292.932C128.518 292.802 128.084 292.598 127.759 292.321C127.434 292.044 127.272 291.656 127.272 291.157C127.267 290.763 127.361 290.416 127.551 290.117C127.742 289.818 128.028 289.582 128.409 289.409C128.791 289.236 129.265 289.149 129.833 289.149C130.561 289.149 131.148 289.314 131.594 289.643C132.045 289.968 132.279 290.447 132.296 291.079H131.237C131.193 290.759 131.048 290.505 130.801 290.319C130.559 290.128 130.231 290.033 129.82 290.033C129.391 290.033 129.042 290.12 128.773 290.293C128.505 290.462 128.37 290.726 128.37 291.086C128.37 291.324 128.466 291.513 128.656 291.651C128.847 291.786 129.129 291.898 129.501 291.989L130.847 292.328C131.159 292.41 131.414 292.518 131.614 292.652C131.817 292.787 131.978 292.936 132.095 293.101C132.216 293.266 132.301 293.439 132.348 293.621C132.4 293.799 132.426 293.97 132.426 294.134C132.426 294.546 132.322 294.901 132.114 295.2C131.911 295.495 131.616 295.725 131.23 295.889C130.849 296.05 130.385 296.13 129.839 296.13ZM136.476 296.13C136.125 296.126 135.794 296.076 135.482 295.98C135.174 295.881 134.901 295.736 134.663 295.545C134.424 295.354 134.236 295.118 134.097 294.836C133.963 294.55 133.896 294.219 133.896 293.842V289.279H135.098V293.718C135.098 294.156 135.232 294.511 135.501 294.784C135.774 295.057 136.184 295.194 136.73 295.194C137.224 295.194 137.62 295.066 137.919 294.81C138.222 294.55 138.374 294.165 138.374 293.653V289.279H139.57V296H138.615L138.491 294.713C138.409 295.051 138.268 295.324 138.069 295.532C137.874 295.74 137.637 295.894 137.36 295.993C137.087 296.089 136.792 296.134 136.476 296.13ZM144.023 289.149C144.504 289.149 144.938 289.242 145.323 289.428C145.709 289.61 146.023 289.87 146.266 290.208C146.513 290.546 146.667 290.945 146.727 291.404H145.661C145.622 291.17 145.531 290.956 145.388 290.761C145.25 290.566 145.066 290.41 144.836 290.293C144.606 290.176 144.338 290.117 144.03 290.117C143.454 290.117 142.986 290.325 142.626 290.741C142.266 291.157 142.086 291.794 142.086 292.652C142.086 293.428 142.251 294.05 142.58 294.518C142.914 294.982 143.404 295.213 144.049 295.213C144.357 295.213 144.624 295.155 144.849 295.038C145.079 294.917 145.263 294.758 145.401 294.563C145.54 294.364 145.629 294.152 145.668 293.926H146.714C146.658 294.377 146.506 294.767 146.259 295.096C146.012 295.426 145.696 295.681 145.31 295.863C144.929 296.041 144.5 296.13 144.023 296.13C143.421 296.13 142.886 295.998 142.418 295.733C141.954 295.469 141.59 295.079 141.326 294.563C141.062 294.048 140.929 293.415 140.929 292.665C140.929 291.963 141.049 291.35 141.287 290.826C141.53 290.297 141.881 289.886 142.34 289.591C142.804 289.296 143.365 289.149 144.023 289.149ZM150.931 289.149C151.412 289.149 151.846 289.242 152.231 289.428C152.617 289.61 152.931 289.87 153.174 290.208C153.421 290.546 153.575 290.945 153.635 291.404H152.569C152.53 291.17 152.439 290.956 152.296 290.761C152.158 290.566 151.973 290.41 151.744 290.293C151.514 290.176 151.245 290.117 150.938 290.117C150.361 290.117 149.893 290.325 149.534 290.741C149.174 291.157 148.994 291.794 148.994 292.652C148.994 293.428 149.159 294.05 149.488 294.518C149.822 294.982 150.312 295.213 150.957 295.213C151.265 295.213 151.531 295.155 151.757 295.038C151.986 294.917 152.171 294.758 152.309 294.563C152.448 294.364 152.537 294.152 152.576 293.926H153.622C153.566 294.377 153.414 294.767 153.167 295.096C152.92 295.426 152.604 295.681 152.218 295.863C151.837 296.041 151.408 296.13 150.931 296.13C150.329 296.13 149.794 295.998 149.326 295.733C148.862 295.469 148.498 295.079 148.234 294.563C147.969 294.048 147.837 293.415 147.837 292.665C147.837 291.963 147.956 291.35 148.195 290.826C148.437 290.297 148.788 289.886 149.248 289.591C149.711 289.296 150.273 289.149 150.931 289.149ZM156.019 292.919C156.019 293.344 156.088 293.729 156.227 294.076C156.37 294.418 156.585 294.691 156.871 294.895C157.161 295.099 157.523 295.2 157.956 295.2C158.385 295.2 158.753 295.101 159.061 294.901C159.373 294.702 159.572 294.414 159.659 294.037H160.797C160.714 294.492 160.532 294.875 160.251 295.188C159.969 295.499 159.629 295.736 159.23 295.896C158.831 296.052 158.415 296.13 157.982 296.13C157.354 296.13 156.801 295.994 156.325 295.72C155.848 295.447 155.475 295.055 155.207 294.544C154.938 294.033 154.804 293.419 154.804 292.704C154.804 291.998 154.925 291.378 155.168 290.845C155.41 290.312 155.761 289.896 156.221 289.597C156.684 289.298 157.241 289.149 157.891 289.149C158.524 289.149 159.059 289.285 159.497 289.558C159.934 289.831 160.266 290.217 160.491 290.715C160.721 291.209 160.836 291.797 160.836 292.477V292.919H156.019ZM156.026 292.106H159.679C159.679 291.721 159.614 291.374 159.484 291.066C159.354 290.754 159.154 290.51 158.886 290.332C158.621 290.15 158.288 290.059 157.885 290.059C157.464 290.059 157.115 290.161 156.838 290.364C156.565 290.564 156.359 290.822 156.221 291.138C156.086 291.45 156.021 291.773 156.026 292.106ZM164.721 296.13C164.253 296.13 163.818 296.059 163.415 295.915C163.016 295.768 162.684 295.541 162.42 295.233C162.156 294.921 161.989 294.524 161.92 294.043H163.012C163.072 294.308 163.181 294.529 163.337 294.706C163.497 294.88 163.696 295.012 163.935 295.103C164.173 295.19 164.433 295.233 164.715 295.233C165.165 295.233 165.529 295.148 165.807 294.979C166.084 294.81 166.223 294.55 166.223 294.199C166.223 293.952 166.149 293.755 166.002 293.608C165.859 293.456 165.635 293.346 165.332 293.276L163.941 292.932C163.399 292.802 162.966 292.598 162.641 292.321C162.316 292.044 162.154 291.656 162.154 291.157C162.149 290.763 162.242 290.416 162.433 290.117C162.624 289.818 162.91 289.582 163.291 289.409C163.672 289.236 164.147 289.149 164.715 289.149C165.443 289.149 166.03 289.314 166.476 289.643C166.927 289.968 167.161 290.447 167.178 291.079H166.119C166.075 290.759 165.93 290.505 165.683 290.319C165.44 290.128 165.113 290.033 164.702 290.033C164.273 290.033 163.924 290.12 163.655 290.293C163.386 290.462 163.252 290.726 163.252 291.086C163.252 291.324 163.347 291.513 163.538 291.651C163.729 291.786 164.01 291.898 164.383 291.989L165.729 292.328C166.041 292.41 166.296 292.518 166.496 292.652C166.699 292.787 166.86 292.936 166.977 293.101C167.098 293.266 167.182 293.439 167.23 293.621C167.282 293.799 167.308 293.97 167.308 294.134C167.308 294.546 167.204 294.901 166.996 295.2C166.792 295.495 166.498 295.725 166.112 295.889C165.731 296.05 165.267 296.13 164.721 296.13ZM171.159 296.13C170.691 296.13 170.256 296.059 169.853 295.915C169.454 295.768 169.122 295.541 168.858 295.233C168.594 294.921 168.427 294.524 168.358 294.043H169.45C169.51 294.308 169.619 294.529 169.775 294.706C169.935 294.88 170.134 295.012 170.373 295.103C170.611 295.19 170.871 295.233 171.153 295.233C171.603 295.233 171.967 295.148 172.245 294.979C172.522 294.81 172.661 294.55 172.661 294.199C172.661 293.952 172.587 293.755 172.44 293.608C172.297 293.456 172.073 293.346 171.77 293.276L170.379 292.932C169.837 292.802 169.404 292.598 169.079 292.321C168.754 292.044 168.592 291.656 168.592 291.157C168.587 290.763 168.68 290.416 168.871 290.117C169.062 289.818 169.348 289.582 169.729 289.409C170.11 289.236 170.585 289.149 171.153 289.149C171.881 289.149 172.468 289.314 172.914 289.643C173.365 289.968 173.599 290.447 173.616 291.079H172.557C172.513 290.759 172.368 290.505 172.121 290.319C171.878 290.128 171.551 290.033 171.14 290.033C170.711 290.033 170.362 290.12 170.093 290.293C169.824 290.462 169.69 290.726 169.69 291.086C169.69 291.324 169.785 291.513 169.976 291.651C170.167 291.786 170.448 291.898 170.821 291.989L172.167 292.328C172.479 292.41 172.734 292.518 172.934 292.652C173.137 292.787 173.298 292.936 173.415 293.101C173.536 293.266 173.62 293.439 173.668 293.621C173.72 293.799 173.746 293.97 173.746 294.134C173.746 294.546 173.642 294.901 173.434 295.2C173.23 295.495 172.936 295.725 172.55 295.889C172.169 296.05 171.705 296.13 171.159 296.13ZM179.122 289.279V290.156H177.49V296H176.281V290.156H174.864V289.279H176.281V288.239C176.281 287.706 176.418 287.301 176.691 287.023C176.964 286.742 177.371 286.601 177.913 286.601H179.18L179.187 287.452H178.179C177.906 287.452 177.72 287.526 177.62 287.673C177.521 287.821 177.471 288.044 177.471 288.343V289.279H179.122ZM182.977 296.13C182.626 296.126 182.295 296.076 181.983 295.98C181.675 295.881 181.402 295.736 181.164 295.545C180.925 295.354 180.737 295.118 180.598 294.836C180.464 294.55 180.397 294.219 180.397 293.842V289.279H181.599V293.718C181.599 294.156 181.734 294.511 182.002 294.784C182.275 295.057 182.685 295.194 183.231 295.194C183.725 295.194 184.121 295.066 184.42 294.81C184.724 294.55 184.875 294.165 184.875 293.653V289.279H186.071V296H185.116L184.992 294.713C184.91 295.051 184.769 295.324 184.57 295.532C184.375 295.74 184.139 295.894 183.861 295.993C183.588 296.089 183.294 296.134 182.977 296.13ZM189.632 296.085C189.268 296.085 188.973 296.035 188.748 295.935C188.527 295.835 188.356 295.701 188.235 295.532C188.118 295.363 188.037 295.17 187.994 294.953C187.955 294.732 187.936 294.505 187.936 294.271V286.341H189.119V294.154C189.119 294.492 189.184 294.745 189.314 294.914C189.448 295.083 189.634 295.177 189.873 295.194L190.237 295.2V295.98C190.137 296.011 190.033 296.035 189.925 296.052C189.816 296.074 189.719 296.085 189.632 296.085ZM193.214 296.085C192.85 296.085 192.555 296.035 192.33 295.935C192.109 295.835 191.937 295.701 191.816 295.532C191.699 295.363 191.619 295.17 191.576 294.953C191.537 294.732 191.517 294.505 191.517 294.271V286.341H192.7V294.154C192.7 294.492 192.765 294.745 192.895 294.914C193.029 295.083 193.216 295.177 193.454 295.194L193.818 295.2V295.98C193.718 296.011 193.614 296.035 193.506 296.052C193.398 296.074 193.3 296.085 193.214 296.085ZM195.698 298.145C195.304 298.145 195.033 298.117 194.886 298.061C194.738 298.004 194.665 297.976 194.665 297.976V297.196L195.347 297.209C195.599 297.218 195.807 297.2 195.971 297.157C196.136 297.114 196.268 297.055 196.368 296.982C196.467 296.908 196.543 296.826 196.595 296.735C196.652 296.644 196.697 296.557 196.732 296.475L196.966 295.837L194.34 289.279H195.555L197.538 294.466L199.507 289.279H200.684L197.85 296.507C197.676 296.932 197.481 297.263 197.265 297.502C197.052 297.74 196.814 297.907 196.55 298.002C196.29 298.097 196.006 298.145 195.698 298.145Z" fill="#36536B"/>
<circle opacity="0.25" cx="130" cy="206" r="28" fill="#BA4270"/>
<path d="M121 207.696L125.577 212.273L138.85 199" stroke="#BA4270" stroke-width="3"/>
</g>
<g clip-path="url(#clip2_0_1)">
<rect x="66" y="318" width="131" height="30" rx="15" fill="#BA4270"/>
<path d="M112.574 329.047C112.614 329.047 112.726 329.047 112.909 329.047C113.096 329.047 113.314 329.047 113.564 329.047C113.817 329.047 114.068 329.049 114.317 329.052C114.57 329.052 114.781 329.054 114.95 329.058C115.914 329.08 116.7 329.252 117.309 329.575C117.918 329.898 118.363 330.349 118.646 330.928C118.932 331.507 119.075 332.193 119.075 332.985C119.075 333.81 118.924 334.523 118.624 335.124C118.323 335.722 117.863 336.184 117.243 336.51C116.627 336.837 115.844 337 114.895 337H112.574V329.047ZM114.191 330.345V335.702H114.928C115.382 335.702 115.795 335.614 116.165 335.438C116.539 335.262 116.838 334.974 117.062 334.574C117.285 334.175 117.397 333.641 117.397 332.974C117.397 332.354 117.298 331.852 117.1 331.467C116.902 331.078 116.62 330.794 116.253 330.614C115.886 330.435 115.452 330.345 114.95 330.345H114.191ZM121.819 331.313V337H120.285V331.313H121.819ZM121.836 329.052V330.499H120.274V329.052H121.836ZM125.44 337.11C125.044 337.11 124.662 337.046 124.296 336.917C123.929 336.785 123.619 336.58 123.366 336.301C123.113 336.019 122.952 335.654 122.882 335.207H124.274C124.321 335.409 124.407 335.568 124.532 335.685C124.66 335.803 124.805 335.887 124.967 335.938C125.128 335.986 125.282 336.01 125.429 336.01C125.737 336.01 125.984 335.962 126.171 335.867C126.362 335.768 126.457 335.618 126.457 335.416C126.457 335.262 126.4 335.139 126.287 335.047C126.177 334.956 125.993 334.886 125.737 334.838L124.736 334.629C124.233 334.523 123.83 334.343 123.526 334.09C123.221 333.834 123.065 333.471 123.058 333.001C123.058 332.66 123.148 332.354 123.328 332.083C123.511 331.812 123.78 331.597 124.136 331.439C124.492 331.282 124.928 331.203 125.445 331.203C126.145 331.203 126.705 331.357 127.123 331.665C127.544 331.973 127.759 332.407 127.766 332.968H126.424C126.384 332.748 126.274 332.58 126.094 332.462C125.918 332.341 125.696 332.281 125.429 332.281C125.15 332.281 124.921 332.33 124.741 332.429C124.561 332.528 124.472 332.679 124.472 332.88C124.472 333.031 124.545 333.15 124.692 333.238C124.838 333.322 125.066 333.396 125.374 333.458L126.298 333.667C126.617 333.744 126.875 333.85 127.073 333.986C127.275 334.118 127.431 334.263 127.541 334.42C127.651 334.578 127.726 334.738 127.766 334.899C127.81 335.057 127.832 335.2 127.832 335.328C127.832 335.706 127.731 336.028 127.53 336.296C127.328 336.56 127.047 336.762 126.688 336.901C126.329 337.04 125.913 337.11 125.44 337.11ZM128.874 337V331.313H130.447V332.116C130.619 331.867 130.85 331.652 131.14 331.473C131.433 331.293 131.802 331.203 132.246 331.203C132.44 331.203 132.638 331.238 132.84 331.307C133.041 331.377 133.23 331.48 133.406 331.615C133.586 331.747 133.731 331.914 133.841 332.116C134.024 331.856 134.264 331.639 134.561 331.467C134.862 331.291 135.195 331.203 135.562 331.203C135.775 331.203 135.989 331.238 136.206 331.307C136.426 331.377 136.627 331.491 136.811 331.648C136.994 331.806 137.141 332.017 137.251 332.281C137.364 332.541 137.421 332.864 137.421 333.249V337H135.815V333.447C135.815 333.22 135.769 333.038 135.678 332.902C135.59 332.763 135.476 332.664 135.337 332.605C135.201 332.543 135.056 332.512 134.902 332.512C134.759 332.512 134.614 332.541 134.468 332.6C134.321 332.655 134.196 332.745 134.094 332.869C133.991 332.994 133.94 333.157 133.94 333.359V337H132.339V333.304C132.339 333.132 132.293 332.987 132.202 332.869C132.11 332.752 131.994 332.664 131.855 332.605C131.719 332.543 131.58 332.512 131.437 332.512C131.29 332.512 131.144 332.543 130.997 332.605C130.85 332.664 130.728 332.758 130.629 332.886C130.53 333.011 130.48 333.168 130.48 333.359V337H128.874ZM140.257 331.313V337H138.722V331.313H140.257ZM140.273 329.052V330.499H138.711V329.052H140.273ZM143.877 337.11C143.481 337.11 143.1 337.046 142.733 336.917C142.366 336.785 142.057 336.58 141.804 336.301C141.551 336.019 141.389 335.654 141.32 335.207H142.711C142.759 335.409 142.845 335.568 142.97 335.685C143.098 335.803 143.243 335.887 143.404 335.938C143.565 335.986 143.719 336.01 143.866 336.01C144.174 336.01 144.422 335.962 144.609 335.867C144.799 335.768 144.895 335.618 144.895 335.416C144.895 335.262 144.838 335.139 144.724 335.047C144.614 334.956 144.431 334.886 144.174 334.838L143.173 334.629C142.671 334.523 142.267 334.343 141.963 334.09C141.659 333.834 141.503 333.471 141.496 333.001C141.496 332.66 141.585 332.354 141.765 332.083C141.948 331.812 142.218 331.597 142.574 331.439C142.929 331.282 143.366 331.203 143.883 331.203C144.583 331.203 145.142 331.357 145.56 331.665C145.982 331.973 146.196 332.407 146.204 332.968H144.862C144.821 332.748 144.711 332.58 144.532 332.462C144.356 332.341 144.134 332.281 143.866 332.281C143.587 332.281 143.358 332.33 143.179 332.429C142.999 332.528 142.909 332.679 142.909 332.88C142.909 333.031 142.982 333.15 143.129 333.238C143.276 333.322 143.503 333.396 143.811 333.458L144.735 333.667C145.054 333.744 145.313 333.85 145.511 333.986C145.712 334.118 145.868 334.263 145.978 334.42C146.088 334.578 146.163 334.738 146.204 334.899C146.248 335.057 146.27 335.2 146.27 335.328C146.27 335.706 146.169 336.028 145.967 336.296C145.765 336.56 145.485 336.762 145.126 336.901C144.766 337.04 144.35 337.11 143.877 337.11ZM149.486 337.11C149.09 337.11 148.709 337.046 148.342 336.917C147.975 336.785 147.665 336.58 147.412 336.301C147.159 336.019 146.998 335.654 146.928 335.207H148.32C148.368 335.409 148.454 335.568 148.578 335.685C148.707 335.803 148.852 335.887 149.013 335.938C149.174 335.986 149.328 336.01 149.475 336.01C149.783 336.01 150.03 335.962 150.217 335.867C150.408 335.768 150.503 335.618 150.503 335.416C150.503 335.262 150.447 335.139 150.333 335.047C150.223 334.956 150.04 334.886 149.783 334.838L148.782 334.629C148.28 334.523 147.876 334.343 147.572 334.09C147.268 333.834 147.112 333.471 147.104 333.001C147.104 332.66 147.194 332.354 147.374 332.083C147.557 331.812 147.827 331.597 148.182 331.439C148.538 331.282 148.974 331.203 149.491 331.203C150.192 331.203 150.751 331.357 151.169 331.665C151.591 331.973 151.805 332.407 151.812 332.968H150.47C150.43 332.748 150.32 332.58 150.14 332.462C149.964 332.341 149.743 332.281 149.475 332.281C149.196 332.281 148.967 332.33 148.787 332.429C148.608 332.528 148.518 332.679 148.518 332.88C148.518 333.031 148.591 333.15 148.738 333.238C148.885 333.322 149.112 333.396 149.42 333.458L150.344 333.667C150.663 333.744 150.921 333.85 151.119 333.986C151.321 334.118 151.477 334.263 151.587 334.42C151.697 334.578 151.772 334.738 151.812 334.899C151.856 335.057 151.878 335.2 151.878 335.328C151.878 335.706 151.778 336.028 151.576 336.296C151.374 336.56 151.094 336.762 150.734 336.901C150.375 337.04 149.959 337.11 149.486 337.11Z" fill="#FBFCFE"/>
</g>
<g filter="url(#filter2_d_0_1)">
<path fill-rule="evenodd" clip-rule="evenodd" d="M-267.224 0.569473H-75.9907C-57.6504 0.569473 -42.7826 14.8048 -42.7826 32.365V467.635C-42.7826 485.195 -57.6504 499.431 -75.9907 499.431H-267.224C-285.564 499.431 -300.432 485.195 -300.432 467.635V32.365C-300.432 14.8048 -285.564 0.569473 -267.224 0.569473Z" fill="#213648"/>
</g>
</g>
<defs>
<filter id="filter0_d_0_1" x="-52.4321" y="-54.4305" width="417.649" height="658.861" filterUnits="userSpaceOnUse" color-interpolation-filters="sRGB">
<feFlood flood-opacity="0" result="BackgroundImageFix"/>
<feColorMatrix in="SourceAlpha" type="matrix" values="0 0 0 0 0 0 0 0 0 0 0 0 0 0 0 0 0 0 127 0" result="hardAlpha"/>
<feOffset dx="25" dy="25"/>
<feGaussianBlur stdDeviation="40"/>
<feColorMatrix type="matrix" values="0 0 0 0 0.212302 0 0 0 0 0.32521 0 0 0 0 0.419299 0 0 0 0.300727 0"/>
<feBlend mode="normal" in2="BackgroundImageFix" result="effect1_dropShadow_0_1"/>
<feBlend mode="normal" in="SourceGraphic" in2="effect1_dropShadow_0_1" result="shape"/>
</filter>
<filter id="filter1_d_0_1" x="38" y="137" width="206" height="221" filterUnits="userSpaceOnUse" color-interpolation-filters="sRGB">
<feFlood flood-opacity="0" result="BackgroundImageFix"/>
<feColorMatrix in="SourceAlpha" type="matrix" values="0 0 0 0 0 0 0 0 0 0 0 0 0 0 0 0 0 0 127 0" result="hardAlpha"/>
<feMorphology radius="10" operator="erode" in="SourceAlpha" result="effect1_dropShadow_0_1"/>
<feOffset dx="10" dy="10"/>
<feGaussianBlur stdDeviation="12.5"/>
<feColorMatrix type="matrix" values="0 0 0 0 0.212302 0 0 0 0 0.32521 0 0 0 0 0.419299 0 0 0 0.25 0"/>
<feBlend mode="normal" in2="BackgroundImageFix" result="effect1_dropShadow_0_1"/>
<feBlend mode="normal" in="SourceGraphic" in2="effect1_dropShadow_0_1" result="shape"/>
</filter>
<filter id="filter2_d_0_1" x="-355.432" y="-54.4305" width="417.65" height="658.861" filterUnits="userSpaceOnUse" color-interpolation-filters="sRGB">
<feFlood flood-opacity="0" result="BackgroundImageFix"/>
<feColorMatrix in="SourceAlpha" type="matrix" values="0 0 0 0 0 0 0 0 0 0 0 0 0 0 0 0 0 0 127 0" result="hardAlpha"/>
<feOffset dx="25" dy="25"/>
<feGaussianBlur stdDeviation="40"/>
<feColorMatrix type="matrix" values="0 0 0 0 0.212302 0 0 0 0 0.32521 0 0 0 0 0.419299 0 0 0 0.300727 0"/>
<feBlend mode="normal" in2="BackgroundImageFix" result="effect1_dropShadow_0_1"/>
<feBlend mode="normal" in="SourceGraphic" in2="effect1_dropShadow_0_1" result="shape"/>
</filter>
<linearGradient id="paint0_linear_0_1" x1="10.0146" y1="0" x2="10.0146" y2="12.3239" gradientUnits="userSpaceOnUse">
<stop stop-color="#454545"/>
<stop offset="0.226279" stop-color="#999999"/>
<stop offset="1" stop-color="white"/>
</linearGradient>
<linearGradient id="paint1_linear_0_1" x1="260.103" y1="85.7474" x2="250.642" y2="85.7474" gradientUnits="userSpaceOnUse">
<stop stop-color="white" stop-opacity="0.01"/>
<stop offset="0.222178" stop-color="#BABABA"/>
<stop offset="0.54678" stop-color="white" stop-opacity="0.01"/>
<stop offset="1" stop-color="white" stop-opacity="0.01"/>
</linearGradient>
<linearGradient id="paint2_linear_0_1" x1="2.56798" y1="85.4867" x2="12.044" y2="85.4867" gradientUnits="userSpaceOnUse">
<stop stop-color="white" stop-opacity="0.01"/>
<stop offset="0.222178" stop-color="#BABABA"/>
<stop offset="0.54678" stop-color="white" stop-opacity="0.01"/>
<stop offset="1" stop-color="white" stop-opacity="0.01"/>
</linearGradient>
<clipPath id="clip0_0_1">
<rect width="1440" height="3066" fill="white" transform="translate(-1008 -1793)"/>
</clipPath>
<clipPath id="clip1_0_1">
<rect width="149" height="122" fill="white" transform="translate(57 178)"/>
</clipPath>
<clipPath id="clip2_0_1">
<rect width="131" height="30" fill="white" transform="translate(66 318)"/>
</clipPath>
</defs>
</svg>
