<svg width="536" height="103" viewBox="0 0 536 103" fill="none" xmlns="http://www.w3.org/2000/svg">
<path fill-rule="evenodd" clip-rule="evenodd" d="M3.35449 10.4282C1.65427 10.0525 0.367615 8.54972 0 7.04696L21 7V7.04696C20.6324 8.54972 19.3917 9.95856 17.6455 10.4282H12.407L12.1313 10.5221V24H8.86871V10.5221L8.593 10.4282H3.35449ZM32.4307 10.4187H44.9481C46.7098 10.0909 48.0079 8.49862 48.3324 7H29C29.3709 8.49862 30.669 10.0441 32.4307 10.4187ZM125.616 10.4187H113.098C111.383 10.0441 110.085 8.49862 109.714 7H129C128.629 8.49862 127.377 10.0909 125.616 10.4187ZM110.224 24V13.7438H128.583V24H125.338V17.1625H113.469V24H110.224ZM100.349 24C101.972 23.2975 102.853 22.0799 103.223 20.6749H88.6198V7.04683H85.3282V24H100.349ZM72.579 10.3719H60.9889L61.0352 13.7438H76.0561V24H56.8164C57.6045 22.3609 59.1808 21.0964 61.0352 20.5813H72.8109V17.0689H57.79V7.04683H76.1488C75.7779 8.49862 74.3408 9.85675 72.579 10.3719ZM44.9481 17.1157H32.4307C30.669 16.741 29.3709 15.1956 29 13.697H48.3324C48.0079 15.1956 46.7098 16.7879 44.9481 17.1157ZM32.4307 24H44.9481C46.7098 23.6722 48.0079 22.0799 48.3324 20.5813H29C29.3709 22.0799 30.669 23.6722 32.4307 24Z" fill="white"/>
<path fill-rule="evenodd" clip-rule="evenodd" d="M206 15H191V0H206V15ZM336 14.0611V11.5398H332.856V7.62017L332.751 7.65262L329.798 8.55241L329.74 8.57002V11.54H325.08V9.88545C325.08 9.11505 325.253 8.5255 325.594 8.13233C325.932 7.74388 326.416 7.54639 327.034 7.54639C327.478 7.54639 327.937 7.65054 328.4 7.85593L328.516 7.90753V5.25227L328.461 5.2323C328.03 5.0778 327.443 5 326.715 5C325.799 5 324.965 5.19874 324.239 5.5926C323.512 5.98702 322.94 6.55008 322.54 7.26597C322.14 7.98103 321.938 8.8069 321.938 9.72083V11.5398H319.749V14.0611H321.938V24.6828H325.08V14.0611H329.74V20.811C329.74 23.591 331.056 24.9997 333.653 24.9997C334.079 24.9997 334.528 24.9499 334.987 24.8524C335.454 24.7523 335.772 24.6523 335.959 24.5455L336 24.5211V21.9765L335.872 22.0607C335.702 22.1739 335.489 22.2664 335.24 22.3352C334.99 22.4052 334.781 22.4403 334.62 22.4403C334.011 22.4403 333.561 22.2771 333.282 21.9549C333 21.6298 332.857 21.0614 332.857 20.2661V14.0611H336ZM312.732 22.4407C311.592 22.4407 310.692 22.064 310.059 21.3221C309.421 20.5764 309.098 19.5132 309.098 18.1624C309.098 16.7688 309.421 15.678 310.059 14.9191C310.693 14.1653 311.584 13.7826 312.706 13.7826C313.796 13.7826 314.663 14.1481 315.285 14.8694C315.909 15.5944 316.226 16.6764 316.226 18.0863C316.226 19.5135 315.928 20.6098 315.34 21.3432C314.757 22.071 313.879 22.4407 312.732 22.4407ZM307.736 13.1107C308.968 11.8582 310.696 11.2232 312.872 11.2232C314.921 11.2232 316.547 11.8306 317.703 13.029C318.858 14.2268 319.444 15.8944 319.444 17.9844C319.444 20.1003 318.82 21.8173 317.588 23.0857C316.357 24.3555 314.663 24.9994 312.554 24.9994C310.53 24.9994 308.894 24.3884 307.691 23.1821C306.489 21.9763 305.88 20.3211 305.88 18.2633C305.88 16.0967 306.504 14.3633 307.736 13.1107ZM300.814 11.2232C299.334 11.2232 298.109 11.6003 297.174 12.3438C296.233 13.0917 295.756 14.0726 295.756 15.2596C295.756 15.8766 295.859 16.4247 296.062 16.8896C296.266 17.356 296.581 17.7666 297.001 18.1113C297.417 18.4531 298.059 18.8112 298.91 19.1755C299.626 19.4688 300.16 19.7169 300.499 19.9125C300.83 20.1042 301.065 20.2968 301.198 20.4844C301.327 20.668 301.393 20.9193 301.393 21.2294C301.393 22.1124 300.729 22.5421 299.363 22.5421C298.856 22.5421 298.278 22.4367 297.645 22.2289C297.017 22.0243 296.423 21.7247 295.886 21.3405L295.756 21.2473V24.2605L295.803 24.2827C296.248 24.4871 296.809 24.6595 297.469 24.7952C298.129 24.9309 298.728 25 299.248 25C300.854 25 302.148 24.6211 303.091 23.8732C304.041 23.1201 304.523 22.1161 304.523 20.888C304.523 20.0021 304.263 19.2424 303.753 18.6297C303.245 18.0219 302.365 17.464 301.137 16.9708C300.159 16.5798 299.532 16.2551 299.274 16.0059C299.024 15.7651 298.898 15.4247 298.898 14.9935C298.898 14.6113 299.054 14.3051 299.375 14.0571C299.698 13.8079 300.148 13.6811 300.712 13.6811C301.235 13.6811 301.771 13.7635 302.304 13.9249C302.836 14.0863 303.304 14.3026 303.694 14.567L303.822 14.6544V11.7961L303.773 11.775C303.413 11.6212 302.938 11.4896 302.361 11.3828C301.787 11.2767 301.267 11.2232 300.814 11.2232ZM284.891 21.3221C285.525 22.064 286.424 22.4407 287.564 22.4407C288.712 22.4407 289.589 22.071 290.173 21.3432C290.76 20.6098 291.058 19.5135 291.058 18.0863C291.058 16.6764 290.742 15.5944 290.117 14.8694C289.496 14.1481 288.628 13.7826 287.539 13.7826C286.416 13.7826 285.526 14.1653 284.892 14.9191C284.254 15.678 283.931 16.7688 283.931 18.1624C283.931 19.5135 284.254 20.5764 284.891 21.3221ZM287.705 11.2232C285.528 11.2232 283.8 11.8582 282.568 13.1107C281.337 14.3633 280.712 16.0967 280.712 18.2633C280.712 20.3219 281.322 21.9763 282.524 23.1821C283.726 24.3884 285.362 24.9994 287.386 24.9994C289.495 24.9994 291.189 24.3555 292.421 23.0857C293.652 21.8173 294.276 20.1003 294.276 17.9844C294.276 15.8944 293.691 14.2268 292.535 13.029C291.379 11.8306 289.754 11.2232 287.705 11.2232ZM275.943 11.5398V13.8159H275.976C276.266 13.0773 276.645 12.485 277.17 12.0529C277.767 11.5615 278.465 11.3118 279.245 11.3118C279.763 11.3118 280.172 11.3735 280.461 11.4959L280.511 11.5173V14.6341L280.381 14.54C280.237 14.4368 279.993 14.3388 279.657 14.2485C279.317 14.1576 279.003 14.1117 278.724 14.1117C277.899 14.1117 277.223 14.4669 276.716 15.1678C276.203 15.8772 275.943 16.8164 275.943 17.9595V24.6826H272.839V11.5398H275.943ZM267.28 11.2232C265.856 11.2232 264.586 11.5273 263.506 12.1269C262.423 12.7278 261.586 13.5857 261.016 14.6766C260.449 15.7648 260.161 17.036 260.161 18.4537C260.161 19.6954 260.441 20.835 260.992 21.8394C261.544 22.8454 262.326 23.6324 263.315 24.1783C264.303 24.7235 265.444 24.9999 266.708 24.9999C268.183 24.9999 269.443 24.7061 270.452 24.1268L270.493 24.1035V21.2712L270.363 21.366C269.905 21.6979 269.394 21.9628 268.844 22.1536C268.296 22.3443 267.796 22.4407 267.357 22.4407C266.139 22.4407 265.161 22.0611 264.452 21.3128C263.74 20.5635 263.38 19.5113 263.38 18.1873C263.38 16.8549 263.756 15.7757 264.497 14.9793C265.236 14.1854 266.216 13.7826 267.408 13.7826C268.428 13.7826 269.423 14.1267 270.363 14.8063L270.493 14.9004V11.9161L270.451 11.8925C270.097 11.6951 269.615 11.5322 269.015 11.4086C268.419 11.2853 267.835 11.2232 267.28 11.2232ZM254.92 11.54H258.024V24.6826H254.92V11.54ZM256.504 5.94111C255.993 5.94111 255.547 6.11433 255.181 6.45758C254.814 6.80179 254.627 7.23518 254.627 7.74665C254.627 8.25008 254.811 8.67556 255.175 9.01062C255.537 9.34472 255.984 9.51405 256.504 9.51405C257.023 9.51405 257.472 9.34472 257.838 9.01118C258.206 8.67556 258.393 8.25022 258.393 7.74665C258.393 7.25307 258.211 6.82412 257.853 6.47145C257.495 6.11946 257.041 5.94111 256.504 5.94111ZM248.759 24.6826V10.5703H248.657L243.036 24.6826H240.789L235.079 10.5689H234.977V24.6824H232V6.34344H236.563L241.97 19.9652L247.543 6.34344H251.927V24.6826H248.759ZM207 15H222V0H207V15ZM206 31H191V16H206V31ZM207 31H222V16H207V31Z" fill="white"/>
<path fill-rule="evenodd" clip-rule="evenodd" d="M435.457 2H418.851L418.097 4.02119C424.682 4.33583 429.915 9.32367 429.915 15.4299C429.915 21.1057 425.393 25.8147 419.468 26.7038L418.757 28.8728H435.457C436.393 28.8764 437.292 28.5007 437.955 27.8285C438.618 27.1564 438.99 26.2431 438.991 25.2905V5.57003C438.991 3.58084 437.408 2 435.457 2ZM405.054 15.4307C405.054 20.4277 408.571 24.838 413.463 26.4409L412.61 28.8728H399.525C397.578 28.8728 396 27.2477 396 25.2639V5.59746C395.999 3.61351 397.577 2.0037 399.525 2.00076H413.033L412.186 4.40059C408.109 6.60463 405.054 11.0378 405.054 15.4307ZM527.553 18.3912H519.838V28.981H527.506C530.283 28.981 530.47 26.2497 530.47 24.7641V21.6497C530.47 19.7808 529.529 18.3912 527.553 18.3912ZM528.071 25.0521V22.0329C528.119 21.3632 527.649 20.596 526.942 20.596H522.236V26.7769H526.754C527.6 26.7769 528.071 25.9617 528.071 25.0521ZM516.525 24.8647C517.092 24.3832 517.469 23.6625 517.469 21.7388C517.469 19.5751 516.006 18.3729 514.308 18.3729H507.37V28.9992H509.73V25.8734H513.787C514.732 25.8734 515.204 26.6428 515.204 27.0756V28.9985H517.469V26.7868C517.469 26.1621 517.28 25.2494 516.525 24.8647ZM509.729 23.6625H514.07C514.968 23.6625 515.203 22.5563 515.203 22.0283C515.203 21.4981 514.968 20.5854 513.787 20.5854H509.729V23.6625ZM500.812 18.3935H497.708L493.522 27.4938V28.9787H495.404L496.25 27.0626H502.261L503.118 28.9787H505.565L500.812 18.3935ZM499.26 20.3576L497.238 24.8601H501.274L499.26 20.3576ZM482.61 28.9901V18.3828H485.015V22.3666H486.051L490.15 18.3828H493.355L488.312 23.3745L492.505 27.5982V28.9901H490.715L486.24 24.5736H485.015V28.9901H482.61ZM469.984 26.4851V20.887C469.984 19.6917 471.252 18.3996 472.38 18.3996H478.161C479.665 18.4468 480.556 20.0269 480.556 20.9358V21.8439H478.161C478.112 21.3655 477.69 20.6486 477.314 20.6486H473.178C472.239 20.6486 472.381 21.6055 472.381 21.6055V25.8155C472.381 26.5811 472.85 26.7723 473.132 26.7723H477.22C478.113 26.7723 478.208 26.0067 478.208 25.5282H480.557V26.4851C480.557 28.0644 479.477 28.9733 478.162 28.9733H472.428C470.642 28.9733 469.984 27.5852 469.984 26.4851ZM464.163 18.3729H461.049L456.188 29H458.736L459.586 27.0771H465.616L466.476 29H468.93L464.163 18.3729ZM462.605 20.3438L460.577 24.8647H464.588L462.605 20.3438ZM453.493 18.3889H445.914V28.984H448.315V26.0113H453.492C454.905 26.0113 456.505 25.1968 456.505 22.2241C456.506 19.2041 454.764 18.3889 453.493 18.3889ZM448.315 23.8065H452.928C453.964 23.8065 453.964 22.7041 453.964 22.2249C453.964 21.7457 453.964 20.5945 452.787 20.5945H448.315V23.8065ZM445.914 2.1737V12.7688H448.315V8.54963H454.575V12.7688H456.976V2.1737H454.575V6.34484H448.315V2.1737H445.914ZM461.093 2.16685H469.104V4.37698H461.847V6.34484H467.879V8.55268H461.847V10.5685H469.104V12.7764H460.952C460.009 12.7764 459.444 12.0084 459.444 11.3845V3.7515C459.444 2.7908 460.009 2.16685 461.093 2.16685ZM488.446 2.17751V11.1841C488.446 11.9985 489.059 12.765 490.141 12.765H497.199V10.5609H490.847V2.17751H488.446ZM515.782 4.37469V12.7764H513.379V4.37469H509.914V2.16532H519.294V4.37469H515.782ZM526.897 12.7832V4.37012H530.412V2.15847H521.023V4.37012H524.491V12.7832H526.897ZM500.148 2.17142H508.153H508.153V4.37698H500.901V6.34407H506.929V8.5504H500.901V10.5647H508.153V12.771H500.006C499.064 12.771 498.499 12.0039 498.499 11.3799V3.75454C498.499 2.79461 499.064 2.17142 500.148 2.17142ZM481.888 12.787C481.179 12.787 480.496 11.7052 480.353 11.1757L478.584 5.61955L476.27 12.7878H474.807C474.098 12.7878 473.484 11.6816 473.342 11.1529L470.463 2.15618H472.87L475.09 9.42043L477.451 2.20418H479.716L482.076 9.42043L484.295 2.15618H486.704L483.304 12.7878H481.888V12.787ZM533.664 2.09371C534.285 2.08364 534.883 2.33407 535.317 2.78623C535.771 3.24791 536 3.80711 536 4.46306C536.009 5.09661 535.762 5.70627 535.317 6.14904C534.862 6.61453 534.31 6.84766 533.664 6.84766C533.017 6.84766 532.467 6.61529 532.014 6.14904C531.563 5.68507 531.338 5.12359 531.338 4.46306C531.329 3.8323 531.576 3.22567 532.02 2.78623C532.474 2.32531 533.021 2.09371 533.664 2.09371ZM535.085 5.91896C534.714 6.31179 534.199 6.52984 533.664 6.52082C533.129 6.5304 532.614 6.31226 532.244 5.91896C531.863 5.53485 531.652 5.0084 531.662 4.4623C531.662 3.89701 531.857 3.41476 532.247 3.01555C532.638 2.61481 533.11 2.41369 533.665 2.41369C534.219 2.41369 534.694 2.61481 535.085 3.01555C535.475 3.41476 535.67 3.89701 535.67 4.4623C535.67 5.03217 535.475 5.51747 535.085 5.91896ZM414.326 2L408 20.0009V20.0016H410.672L413.765 11.3377H414.608C415.169 11.3377 415.169 11.7541 415.076 12.2178L412.311 20.0016H415.076C415.076 20.0016 417.466 13.423 417.888 12.0328C418.309 10.6426 417.466 9.9475 415.826 9.9475H414.232L417.044 2H414.326ZM420.459 9.90179H424.832C426.148 9.90179 427.513 10.5998 426.808 12.5075L424.785 18.1839C424.41 19.2542 424.08 19.9987 422.105 19.9987H419.632L416.838 28H414.158L420.459 9.90179ZM424.08 11.9959C424.08 11.9959 422.105 17.5323 422.058 17.8117C422.011 18.0911 421.775 18.6026 421.305 18.6026H420.119L422.669 11.2979H423.845C424.268 11.2979 424.221 11.6237 424.08 11.9959Z" fill="white"/>
<path fill-rule="evenodd" clip-rule="evenodd" d="M235.303 86.0795H231.103L232.509 84.6997H240L238.897 85.7907C238.692 85.9764 238.555 86.1878 238.555 86.496V92.5235C235.059 93.4855 232.033 94 228.624 94C221.594 94 216 89.4245 216 81.8291C216 76.4931 220.195 70 229.372 70C233.553 70 236.478 71.2844 238.498 72.6359L235.304 75.794V73.8906C233.601 72.3638 231.697 71.2676 228.426 71.2676C223.255 71.2676 219.549 75.2342 219.549 80.889C219.549 86.6547 223.647 92.5583 230.618 92.5583C232.338 92.5583 233.993 92.3299 235.303 91.9135V86.0795ZM249.413 78C244.218 78 241 81.6897 241 85.6061C241 88.9865 243.593 93 248.846 93C253.9 93 257 89.3031 257 85.3181C257 81.6062 253.97 78.0014 249.413 78.0014V78ZM248.551 79.0757C252.213 79.0757 253.844 83.7138 253.844 87.0219C253.844 91.9417 250.047 92.039 249.594 92.039C247.856 92.039 246.642 91.0182 245.733 89.6794C244.933 88.4455 244.151 86.1531 244.151 83.9132C244.151 81.6821 244.902 80.5927 246.084 79.7912C247.051 79.1904 247.956 79.0757 248.55 79.0757H248.551ZM283.416 78C279.032 78 276.66 80.8954 276.66 84.1281C276.66 86.5892 278.351 89.3657 281.837 89.3657H282.719C282.719 89.3657 282.479 89.9745 282.478 90.5626C282.478 91.4301 282.776 91.9173 283.411 92.667C277.411 93.0483 275 95.5727 275 98.2858C275 100.662 277.181 103 281.764 103C287.19 103 290 99.8576 290 96.7736C290 94.5995 288.962 93.4077 286.332 91.3525C285.559 90.7256 285.409 90.3263 285.409 89.8571C285.409 89.1974 285.781 88.7567 285.928 88.5819L285.936 88.5723C286.1 88.3916 286.343 88.1941 286.536 88.0376L286.536 88.0375L286.537 88.0372C286.636 87.9564 286.722 87.8865 286.777 87.8355C287.661 87.0548 288.908 85.8994 288.908 83.5933C288.908 82.0111 288.278 80.6501 286.84 79.3756H288.595L289.913 78.0003H283.416V78ZM282.207 79.0289C283.002 79.0289 283.666 79.3223 284.367 79.9311C285.145 80.6627 286.388 82.6287 286.388 85.0614C286.388 87.6866 284.433 88.4053 283.375 88.4053C282.857 88.4053 282.236 88.2541 281.711 87.8792C280.544 87.0896 279.385 84.9877 279.385 82.4866C279.385 80.2297 280.674 79.0289 282.207 79.0289ZM284.517 93.6921C284.517 93.6921 284.277 93.6635 283.943 93.6635C279.441 93.7293 277.8 95.5004 277.8 97.5583C277.8 100.043 280.194 101.564 283.327 101.564C286.18 101.564 287.942 100.01 287.942 98.0287C287.942 96.5874 287.142 95.7782 285.858 94.7196C285.307 94.2802 284.517 93.6921 284.517 93.6921ZM297.03 93H290.663L291.83 91.8458C292.021 91.6494 292.11 91.4581 292.11 91.177V71.4027H290L291.413 70H296.843L295.694 71.1399C295.566 71.2623 295.39 71.4549 295.39 71.8309V90.9208C295.39 91.3294 295.682 91.751 296.174 91.8108L298 92.0372L297.03 93ZM298 85.2021C298 80.5765 301.822 78 305.421 78H305.422C309.239 78 310.9 79.987 311.489 81.9602L301.29 85.8329C302.264 89.4302 305.048 91.3872 307.935 91.3872C309.454 91.3872 310.598 90.9509 312 90.2866C311.257 91.2202 310.24 91.9631 309.182 92.4205C308.196 92.8456 307.144 93 305.866 93C300.742 93 298 89.0224 298 85.2021ZM308.081 81.7182C308.081 80.5503 306.685 79.0583 304.754 79.0583C303.478 79.0583 300.891 79.957 300.891 83.3187C300.891 84.1202 301.061 84.8618 301.061 84.8618L307.33 82.4798C307.829 82.2953 308.081 82.0959 308.081 81.7182ZM267.413 78C262.218 78 259 81.6897 259 85.6061C259 88.9865 261.593 93 266.846 93C271.9 93 275 89.3031 275 85.3181C275 81.6062 271.97 78.0014 267.413 78.0014V78ZM266.551 79.0757C270.213 79.0757 271.844 83.7138 271.844 87.0219C271.844 91.9417 268.047 92.039 267.594 92.039C265.856 92.039 264.642 91.0182 263.733 89.6794C262.933 88.4455 262.151 86.1531 262.151 83.9132C262.151 81.6821 262.902 80.5927 264.084 79.7912C265.051 79.1904 265.956 79.0757 266.55 79.0757H266.551Z" fill="white"/>
<path fill-rule="evenodd" clip-rule="evenodd" d="M56.5539 89.06H65.2099L60.6328 81.709L52.2322 94.9997H48.4091L58.6269 79.0347C59.071 78.3898 59.8115 78 60.6328 78C61.427 78 62.1674 78.3762 62.5983 79.0078L72.8565 94.9997H69.0334L67.2296 92.0299H58.4657L56.5539 89.06ZM96.2673 92.0296V78.1612H93.023V93.3871C93.023 93.8037 93.1845 94.207 93.4941 94.516C93.8037 94.825 94.221 94.9997 94.6787 94.9997H109.474L111.386 92.0299H96.2671L96.2673 92.0296ZM48.3014 83.8591C48.3014 87.0037 45.7436 89.5434 42.5932 89.5434L42.5934 89.544H41.1125L47.6282 95H42.9163L33.2318 86.5741L42.378 86.5873C43.8858 86.5873 45.0973 85.3645 45.0973 83.8596C45.0973 82.3545 43.8858 81.1313 42.378 81.1313H31.6432V95H28.3999V78.1609H42.5932C45.7436 78.1609 48.3014 80.7142 48.3014 83.8591ZM8.43568 94.9997C3.77904 95 0 91.2371 0 86.5873C0 81.9374 3.77904 78.1614 8.43568 78.1614H18.2402C22.8979 78.1614 26.6741 81.9374 26.6741 86.5873C26.6741 91.2371 22.8979 94.9997 18.24 94.9997H8.43568ZM23.4825 86.5871C23.4825 89.5973 21.0391 92.0299 18.0222 92.0299H18.022H8.6524C5.63684 92.0299 3.1921 89.5973 3.1921 86.5873C3.1921 83.5771 5.63684 81.1313 8.65265 81.1313H18.0222C21.0391 81.1313 23.4825 83.5771 23.4825 86.5871ZM79.628 94.9997C74.9704 94.9997 71.1872 91.2371 71.1872 86.5873C71.1872 81.9374 74.9704 78.1614 79.628 78.1614H91.2732L89.3747 81.1313H79.8435C76.8279 81.1313 74.3778 83.5771 74.3778 86.5873C74.3778 89.5973 76.8279 92.0299 79.8435 92.0299H91.5421L89.6304 94.9997H79.628ZM114.051 88.0654C114.697 90.3636 116.811 92.0299 119.302 92.0299H131L129.088 94.9995H119.086C114.428 94.9995 110.645 91.2368 110.645 86.5868C110.645 81.9371 114.428 78.1609 119.086 78.1609H130.744L128.82 81.1313H119.302C116.811 81.1313 114.697 82.8109 114.051 85.0955H129.829L127.917 88.0654H114.051Z" fill="white"/>
<path fill-rule="evenodd" clip-rule="evenodd" d="M413.541 74V77.5014L414.23 77.458C423.086 77.1541 428.871 84.7791 428.871 84.7791C428.871 84.7791 422.239 92.9104 415.335 92.9104C414.732 92.9104 414.144 92.8525 413.555 92.7513V94.9215C414.043 94.9794 414.545 95.0228 415.033 95.0228C421.464 95.0228 426.115 91.7095 430.622 87.803C430.959 88.0772 431.766 88.5252 432.609 88.9929C433.634 89.5616 434.711 90.1593 435.057 90.5086C430.78 94.1258 420.804 97.0339 415.148 97.0339C414.603 97.0339 414.086 97.005 413.569 96.9471V100H438V74H413.541ZM413.541 81.7551V79.4124L413.555 79.4112V79.4103C413.78 79.3962 414.005 79.3823 414.23 79.3823C420.603 79.1797 424.78 84.9093 424.78 84.9093C424.78 84.9093 420.273 91.2176 415.435 91.2176C414.789 91.2176 414.158 91.1163 413.555 90.9137V83.7952C415.893 84.0813 416.475 85.0727 417.769 87.2768C417.85 87.4137 417.933 87.5553 418.019 87.7017L421.335 84.8948C421.335 84.8948 418.909 81.6973 414.833 81.6973C414.402 81.6828 413.971 81.7117 413.541 81.7551ZM413.541 81.7551L413.541 83.7807H413.526C411.043 83.4769 409.091 85.8208 409.091 85.8208C409.091 85.8208 410.196 89.7707 413.541 90.9137V92.7657C407.598 91.695 405.947 85.4591 405.947 85.4591C405.947 85.4591 408.804 82.276 413.541 81.7551ZM413.555 79.4103L413.541 79.4112L413.541 79.4112V79.4124C406.502 79.9682 402.99 85.1987 402.99 85.1987C402.99 85.1987 405.675 93.9377 413.541 94.9215V96.9471C402.818 95.9343 399 84.7935 399 84.7935C399 84.7935 405.746 78.138 413.555 77.5014V79.4103ZM445 79V95.9856H449.852V82.797L453.635 82.8113C454.877 82.8113 455.743 83.1134 456.335 83.7462C457.101 84.5516 457.404 85.8604 457.404 88.2335V95.9856H462.111V86.6083C462.111 79.9061 457.823 79 453.635 79H445ZM482.832 79.0288V96H487.641V79.0288H482.832ZM490.587 96V79.0288H497.33C501.171 79.0288 503.741 79.489 505.503 81.8621C506.499 83.1853 507.063 85.3139 507.063 87.7014C507.063 90.3046 506.398 92.692 505.359 93.7707C503.9 95.3096 502.543 96 498.384 96H490.587ZM495.352 82.7107H497.417C500.42 82.7107 502.355 84.0482 502.355 87.5288C502.355 91.0093 500.42 92.3613 497.417 92.3613H495.352V82.7107ZM471.887 92.4763L475.901 79.0288H480.811L475.266 96H468.335L462.848 79.0288H468.046L471.887 92.4763ZM509.315 96H514.124V79.0288H509.315V96ZM516.087 95.9856L522.802 79.0288H529.228L536 95.9712H530.845L529.834 92.9797H521.892L520.824 95.9856H516.087ZM525.921 82.121L528.838 90.0601H522.917L525.921 82.121Z" fill="white"/>
</svg>
