<svg width="280" height="154" viewBox="0 0 280 154" fill="none" xmlns="http://www.w3.org/2000/svg">
<path fill-rule="evenodd" clip-rule="evenodd" d="M4.75692 8.74634C3.35958 8.43124 2.30213 7.17086 2 5.91048L19.2591 5.87109V5.91048C18.9569 7.17086 17.9373 8.35247 16.5021 8.74634H12.1968L11.9702 8.82511V20.1292H9.28884V8.82511L9.06224 8.74634H4.75692ZM28.6535 8.73842H38.941C40.3889 8.46347 41.4558 7.128 41.7225 5.87109H25.8339C26.1388 7.128 27.2056 8.42419 28.6535 8.73842ZM105.239 8.73842H94.951C93.5412 8.42419 92.4744 7.128 92.1695 5.87109H108.02C107.715 7.128 106.686 8.46347 105.239 8.73842ZM92.5887 20.1292V11.5272H107.677V20.1292H105.01V14.3945H95.2558V20.1292H92.5887ZM84.4729 20.1292C85.8065 19.54 86.5304 18.5187 86.8353 17.3404H74.8331V5.91037H72.1279V20.1292H84.4729ZM61.6498 8.69914H52.1243L52.1624 11.5272H64.5075V20.1292H48.6952C49.3429 18.7544 50.6384 17.6939 52.1624 17.2618H61.8403V14.316H49.4953V5.91037H64.5837C64.2789 7.128 63.0977 8.26708 61.6498 8.69914ZM38.941 14.3552H28.6535C27.2056 14.041 26.1388 12.7448 25.8339 11.4879H41.7225C41.4558 12.7448 40.3889 14.0803 38.941 14.3552ZM28.6535 20.1292H38.941C40.3889 19.8542 41.4558 18.5187 41.7225 17.2618H25.8339C26.1388 18.5187 27.2056 19.8542 28.6535 20.1292Z" fill="white"/>
<path fill-rule="evenodd" clip-rule="evenodd" d="M171.303 12.5806H158.975V0H171.303V12.5806ZM278.145 11.7932V9.67856H275.562V6.39111L275.475 6.41833L273.048 7.17299L273 7.18776V9.67867H269.17V8.29102C269.17 7.64488 269.312 7.15042 269.593 6.82067C269.871 6.49486 270.269 6.32923 270.776 6.32923C271.141 6.32923 271.519 6.41658 271.899 6.58885L271.994 6.63212V4.40513L271.949 4.38838C271.595 4.2588 271.112 4.19355 270.514 4.19355C269.761 4.19355 269.076 4.36023 268.479 4.69057C267.882 5.02137 267.412 5.49361 267.082 6.09404C266.754 6.69377 266.588 7.38643 266.588 8.15295V9.67856H264.789V11.7932H266.588V20.7017H269.17V11.7932H273V17.4544C273 19.786 274.082 20.9675 276.216 20.9675C276.567 20.9675 276.936 20.9258 277.312 20.844C277.696 20.76 277.957 20.6761 278.111 20.5866L278.145 20.5661V18.4319L278.04 18.5025C277.9 18.5975 277.725 18.675 277.521 18.7327C277.315 18.7915 277.144 18.8209 277.011 18.8209C276.511 18.8209 276.141 18.684 275.911 18.4138C275.679 18.1411 275.562 17.6644 275.562 16.9974V11.7932H278.145ZM259.022 18.8212C258.085 18.8212 257.346 18.5053 256.825 17.883C256.301 17.2576 256.036 16.3659 256.036 15.233C256.036 14.0641 256.301 13.1493 256.825 12.5128C257.346 11.8805 258.078 11.5596 259.001 11.5596C259.897 11.5596 260.609 11.8661 261.12 12.4711C261.633 13.0792 261.893 13.9867 261.893 15.1691C261.893 16.3662 261.649 17.2856 261.166 17.9007C260.686 18.5111 259.965 18.8212 259.022 18.8212ZM254.916 10.9961C255.928 9.94562 257.349 9.41301 259.137 9.41301C260.821 9.41301 262.158 9.92247 263.107 10.9276C264.057 11.9322 264.538 13.3308 264.538 15.0837C264.538 16.8583 264.025 18.2984 263.013 19.3622C262.001 20.4272 260.609 20.9673 258.875 20.9673C257.212 20.9673 255.867 20.4548 254.879 19.4431C253.891 18.4317 253.39 17.0435 253.39 15.3176C253.39 13.5005 253.904 12.0466 254.916 10.9961ZM249.227 9.41301C248.01 9.41301 247.004 9.72927 246.236 10.3528C245.462 10.9801 245.07 11.8028 245.07 12.7984C245.07 13.3159 245.155 13.7756 245.321 14.1655C245.489 14.5566 245.748 14.901 246.093 15.1901C246.435 15.4768 246.963 15.7771 247.663 16.0827C248.251 16.3287 248.689 16.5368 248.968 16.7008C249.24 16.8615 249.434 17.0231 249.543 17.1805C249.649 17.3345 249.703 17.5453 249.703 17.8053C249.703 18.5459 249.157 18.9063 248.034 18.9063C247.618 18.9063 247.143 18.8179 246.623 18.6436C246.106 18.472 245.619 18.2207 245.177 17.8985L245.07 17.8203V20.3475L245.109 20.3662C245.475 20.5376 245.935 20.6822 246.478 20.7959C247.02 20.9098 247.513 20.9677 247.94 20.9677C249.26 20.9677 250.323 20.65 251.099 20.0227C251.879 19.3911 252.275 18.5489 252.275 17.519C252.275 16.7759 252.062 16.1388 251.642 15.6249C251.225 15.1152 250.502 14.6472 249.493 14.2336C248.689 13.9056 248.174 13.6333 247.961 13.4243C247.756 13.2224 247.652 12.9368 247.652 12.5752C247.652 12.2546 247.781 11.9978 248.044 11.7898C248.31 11.5808 248.68 11.4745 249.143 11.4745C249.573 11.4745 250.014 11.5436 250.452 11.679C250.889 11.8144 251.273 11.9957 251.594 12.2175L251.7 12.2908V9.89351L251.659 9.87583C251.363 9.74683 250.973 9.63645 250.499 9.54689C250.027 9.4579 249.599 9.41301 249.227 9.41301ZM236.141 17.883C236.662 18.5053 237.401 18.8212 238.338 18.8212C239.281 18.8212 240.002 18.5111 240.481 17.9007C240.964 17.2856 241.209 16.3662 241.209 15.1691C241.209 13.9867 240.949 13.0792 240.436 12.4711C239.925 11.8661 239.212 11.5596 238.317 11.5596C237.394 11.5596 236.662 11.8805 236.141 12.5128C235.617 13.1493 235.352 14.0641 235.352 15.233C235.352 16.3662 235.617 17.2576 236.141 17.883ZM238.453 9.41301C236.664 9.41301 235.244 9.94562 234.232 10.9961C233.22 12.0466 232.706 13.5005 232.706 15.3176C232.706 17.0442 233.207 18.4317 234.195 19.4431C235.183 20.4548 236.528 20.9673 238.191 20.9673C239.925 20.9673 241.317 20.4272 242.329 19.3622C243.341 18.2984 243.854 16.8583 243.854 15.0837C243.854 13.3308 243.373 11.9322 242.423 10.9276C241.473 9.92247 240.137 9.41301 238.453 9.41301ZM228.786 9.67856V11.5875H228.813C229.052 10.968 229.363 10.4713 229.795 10.1089C230.286 9.6967 230.86 9.48733 231.501 9.48733C231.926 9.48733 232.262 9.53909 232.5 9.64168L232.541 9.65971V12.2738L232.434 12.1948C232.316 12.1083 232.115 12.026 231.839 11.9503C231.56 11.8741 231.302 11.8356 231.072 11.8356C230.394 11.8356 229.839 12.1335 229.422 12.7214C229 13.3163 228.786 14.104 228.786 15.0628V20.7015H226.235V9.67856H228.786ZM221.667 9.41301C220.497 9.41301 219.453 9.66809 218.565 10.1709C217.675 10.6749 216.987 11.3945 216.519 12.3094C216.053 13.2221 215.816 14.2883 215.816 15.4773C215.816 16.5188 216.046 17.4745 216.499 18.3169C216.953 19.1607 217.595 19.8207 218.408 20.2786C219.22 20.7358 220.158 20.9676 221.197 20.9676C222.409 20.9676 223.444 20.7213 224.274 20.2354L224.308 20.2159V17.8403L224.2 17.9199C223.825 18.1983 223.404 18.4204 222.952 18.5805C222.502 18.7404 222.091 18.8212 221.73 18.8212C220.729 18.8212 219.926 18.5029 219.342 17.8752C218.758 17.2468 218.461 16.3643 218.461 15.2538C218.461 14.1364 218.771 13.2312 219.38 12.5633C219.987 11.8974 220.792 11.5596 221.772 11.5596C222.611 11.5596 223.428 11.8482 224.201 12.4182L224.308 12.4971V9.99412L224.273 9.97435C223.982 9.80883 223.586 9.67216 223.093 9.56852C222.603 9.46511 222.123 9.41301 221.667 9.41301ZM211.509 9.67867H214.06V20.7015H211.509V9.67867ZM212.81 4.98287C212.39 4.98287 212.024 5.12815 211.723 5.41603C211.421 5.70473 211.268 6.06822 211.268 6.49719C211.268 6.91942 211.419 7.27628 211.719 7.5573C212.016 7.8375 212.383 7.97952 212.81 7.97952C213.237 7.97952 213.606 7.8375 213.907 7.55776C214.21 7.27628 214.363 6.91953 214.363 6.49719C214.363 6.08322 214.214 5.72346 213.919 5.42766C213.625 5.13245 213.252 4.98287 212.81 4.98287ZM206.445 20.7015V8.86539H206.361L201.741 20.7015H199.895L195.202 8.86423H195.118V20.7014H192.672V5.3203H196.421L200.866 16.745L205.446 5.3203H209.049V20.7015H206.445ZM172.125 12.5806H184.453V0H172.125V12.5806ZM171.303 26H158.975V13.4194H171.303V26ZM172.125 26H184.453V13.4194H172.125V26Z" fill="white"/>
<path fill-rule="evenodd" clip-rule="evenodd" d="M32.3952 65H18.7614L18.1421 66.6469C23.5481 66.9033 27.8451 70.9674 27.8451 75.9429C27.8451 80.5676 24.1323 84.4046 19.2677 85.129L18.684 86.8963H32.3952C33.1634 86.8993 33.9011 86.5931 34.4455 86.0455C34.9898 85.4978 35.296 84.7537 35.2963 83.9775V67.9089C35.2963 66.2881 33.9969 65 32.3952 65ZM7.43342 75.9435C7.43342 80.0151 10.321 83.6087 14.3378 84.9148L13.6368 86.8963H2.89436C1.29573 86.8963 0 85.5722 0 83.9558V67.9313C-0.00101789 66.3147 1.29443 65.003 2.89436 65.0006H13.9846L13.2891 66.956C9.94133 68.7519 7.43342 72.3642 7.43342 75.9435ZM108.008 78.3558H101.673V86.9845H107.969C110.249 86.9845 110.403 84.759 110.403 83.5485V81.0108C110.403 79.4881 109.63 78.3558 108.008 78.3558ZM108.432 83.7832V81.3231C108.472 80.7774 108.086 80.1523 107.506 80.1523H103.642V85.1886H107.351C108.046 85.1886 108.432 84.5244 108.432 83.7832ZM98.9531 83.6305C99.4188 83.2381 99.7284 82.6509 99.7284 81.0835C99.7284 79.3205 98.5273 78.3409 97.1327 78.3409H91.4367V86.9994H93.3745V84.4524H96.7057C97.481 84.4524 97.8687 85.0793 97.8687 85.4319V86.9988H99.7284V85.1967C99.7284 84.6876 99.573 83.944 98.9531 83.6305ZM93.3739 82.6509H96.9379C97.6746 82.6509 97.8681 81.7495 97.8681 81.3194C97.8681 80.8873 97.6746 80.1436 96.7051 80.1436H93.3739V82.6509ZM86.0529 78.3577H83.5044L80.0676 85.7727V86.9826H81.6121L82.307 85.4214H87.2423L87.9458 86.9826H89.9548L86.0529 78.3577ZM84.7787 79.958L83.118 83.6267H86.432L84.7787 79.958ZM71.1087 86.9919V78.349H73.0827V81.595H73.9336L77.2992 78.349H79.93L75.7896 82.4163L79.2326 85.8578V86.9919H77.7624L74.0884 83.3933H73.0827V86.9919H71.1087ZM60.7422 84.9508V80.3894C60.7422 79.4155 61.7836 78.3626 62.7094 78.3626H67.4555C68.6904 78.4011 69.4222 79.6886 69.4222 80.4292V81.1691H67.4555C67.4156 80.7793 67.0691 80.1951 66.7607 80.1951H63.365C62.5939 80.1951 62.71 80.9748 62.71 80.9748V84.4052C62.71 85.0291 63.0953 85.1849 63.3269 85.1849H66.6833C67.4162 85.1849 67.4942 84.561 67.4942 84.1712H69.4228V84.9508C69.4228 86.2377 68.5362 86.9783 67.4561 86.9783H62.7487C61.2822 86.9783 60.7422 85.8472 60.7422 84.9508ZM55.9635 78.3409H53.4064L49.4154 87H51.5074L52.2053 85.4332H57.156L57.8619 87H59.8771L55.9635 78.3409ZM54.6844 79.9468L53.0188 83.6305H56.3119L54.6844 79.9468ZM47.203 78.354H40.9806V86.987H42.9515V84.5647H47.2024C48.3617 84.5647 49.6759 83.9011 49.6759 81.4789C49.6765 79.0182 48.2462 78.354 47.203 78.354ZM42.9515 82.7682H46.7392C47.5895 82.7682 47.5895 81.87 47.5895 81.4795C47.5895 81.0891 47.5895 80.1511 46.623 80.1511H42.9515V82.7682ZM40.9806 65.1415V73.7745H42.9515V70.3367H48.0914V73.7745H50.0624V65.1415H48.0914V68.5402H42.9515V65.1415H40.9806ZM53.4427 65.1359H60.0197V66.9368H54.0614V68.5402H59.0139V70.3392H54.0614V71.9818H60.0197V73.7808H53.3266C52.5525 73.7808 52.0886 73.155 52.0886 72.6466V66.4271C52.0886 65.6444 52.5525 65.1359 53.4427 65.1359ZM75.9002 65.1446V72.4834C75.9002 73.147 76.4028 73.7714 77.2912 73.7714H83.086V71.9756H77.8712V65.1446H75.9002ZM98.343 66.9349V73.7808H96.3702V66.9349H93.5256V65.1347H101.227V66.9349H98.343ZM107.469 73.7863V66.9312H110.355V65.1291H102.646V66.9312H105.494V73.7863H107.469ZM85.5073 65.1397H92.0794H92.08V66.9368H86.126V68.5396H91.0749V70.3374H86.126V71.9787H92.08V73.7764H85.3912C84.6171 73.7764 84.1538 73.1513 84.1538 72.6429V66.4296C84.1538 65.6475 84.6171 65.1397 85.5073 65.1397ZM70.5158 73.7894C69.934 73.7894 69.3724 72.908 69.2557 72.4765L67.8027 67.9493L65.903 73.7901H64.7019C64.12 73.7901 63.6156 72.8887 63.4995 72.4579L61.1354 65.1273H63.1118L64.9347 71.0463L66.8725 65.1664H68.7322L70.67 71.0463L72.4916 65.1273H74.4693L71.6782 73.7901H70.5158V73.7894ZM113.025 65.0764C113.535 65.0681 114.026 65.2722 114.382 65.6406C114.755 66.0168 114.942 66.4725 114.942 67.0069C114.95 67.5232 114.748 68.0199 114.382 68.3807C114.008 68.76 113.555 68.9499 113.025 68.9499C112.493 68.9499 112.042 68.7606 111.67 68.3807C111.3 68.0027 111.115 67.5451 111.115 67.0069C111.107 66.493 111.31 65.9987 111.675 65.6406C112.048 65.2651 112.497 65.0764 113.025 65.0764ZM114.191 68.1932C113.887 68.5133 113.464 68.691 113.025 68.6836C112.586 68.6914 112.163 68.5137 111.859 68.1932C111.546 67.8802 111.373 67.4513 111.381 67.0063C111.381 66.5457 111.541 66.1528 111.861 65.8275C112.183 65.501 112.57 65.3371 113.026 65.3371C113.481 65.3371 113.87 65.501 114.192 65.8275C114.512 66.1528 114.671 66.5457 114.671 67.0063C114.671 67.4707 114.512 67.8661 114.191 68.1932ZM15.0461 65L9.85222 79.6674V79.668H12.0457L14.5851 72.6085H15.2775C15.7385 72.6085 15.7385 72.9478 15.6619 73.3256L13.3919 79.668H15.6619C15.6619 79.668 17.624 74.3076 17.9705 73.1749C18.3164 72.0421 17.624 71.4757 16.2772 71.4757H14.9689L17.2775 65H15.0461ZM20.0814 71.4385H23.6719C24.7524 71.4385 25.8727 72.0073 25.2936 73.5616L23.6333 78.1869C23.3248 79.059 23.0542 79.6656 21.4325 79.6656H19.4024L17.1086 86.1852H14.9077L20.0814 71.4385ZM23.0542 73.1448C23.0542 73.1448 21.4325 77.656 21.3939 77.8836C21.3553 78.1112 21.1619 78.5281 20.7762 78.5281H19.8022L21.8959 72.576H22.8613C23.2085 72.576 23.1699 72.8415 23.0542 73.1448Z" fill="white"/>
<path fill-rule="evenodd" clip-rule="evenodd" d="M218.025 77.2711H225.131L221.374 71.2815L214.476 82.1109H211.338L219.727 69.1023C220.091 68.5769 220.699 68.2593 221.374 68.2593C222.026 68.2593 222.634 68.5658 222.987 69.0805L231.409 82.1109H228.271L226.79 79.691H219.594L218.025 77.2711ZM250.63 79.6908V68.3906H247.967V80.7969C247.967 81.1363 248.099 81.4649 248.353 81.7168C248.607 81.9686 248.95 82.1109 249.326 82.1109H261.473L263.043 79.691H250.63L250.63 79.6908ZM211.249 73.0333C211.249 75.5956 209.149 77.6651 206.563 77.6651L206.563 77.6655H205.347L210.697 82.1111H206.828L198.877 75.2456L206.386 75.2564C207.624 75.2564 208.619 74.2599 208.619 73.0338C208.619 71.8074 207.624 70.8107 206.386 70.8107H197.573V82.1111H194.91V68.3904H206.563C209.149 68.3904 211.249 70.4709 211.249 73.0333ZM178.519 82.1109C174.696 82.1111 171.593 79.045 171.593 75.2564C171.593 71.4675 174.696 68.3908 178.519 68.3908H186.568C190.392 68.3908 193.493 71.4675 193.493 75.2564C193.493 79.045 190.392 82.1109 186.568 82.1109H178.519ZM190.872 75.2562C190.872 77.709 188.866 79.691 186.389 79.691H186.389H178.697C176.221 79.691 174.214 77.709 174.214 75.2564C174.214 72.8036 176.221 70.8107 178.697 70.8107H186.389C188.866 70.8107 190.872 72.8036 190.872 75.2562ZM236.969 82.1109C233.145 82.1109 230.039 79.045 230.039 75.2564C230.039 71.4675 233.145 68.3908 236.969 68.3908H246.53L244.971 70.8107H237.146C234.67 70.8107 232.658 72.8036 232.658 75.2564C232.658 77.709 234.67 79.691 237.146 79.691H246.751L245.181 82.1109H236.969ZM265.231 76.4607C265.762 78.3333 267.497 79.691 269.542 79.691H279.146L277.577 82.1107H269.365C265.54 82.1107 262.435 79.0448 262.435 75.256C262.435 71.4673 265.54 68.3904 269.365 68.3904H278.936L277.356 70.8107H269.542C267.497 70.8107 265.762 72.1793 265.231 74.0408H278.185L276.615 76.4607H265.231Z" fill="white"/>
<path fill-rule="evenodd" clip-rule="evenodd" d="M23.8735 140.156H20.4196L21.5755 139.027H27.7359L26.8288 139.92C26.6604 140.072 26.5478 140.245 26.5478 140.497V145.428C23.6729 146.215 21.1841 146.636 18.3811 146.636C12.6002 146.636 8 142.893 8 136.678C8 132.313 11.4496 127 18.9965 127C22.4343 127 24.8395 128.051 26.5005 129.157L23.8744 131.741V130.183C22.4739 128.934 20.9084 128.037 18.218 128.037C13.9663 128.037 10.9188 131.283 10.9188 135.909C10.9188 140.627 14.288 145.457 20.0206 145.457C21.435 145.457 22.7958 145.27 23.8735 144.929V140.156ZM35.4764 133.545C31.2049 133.545 28.5583 136.564 28.5583 139.769C28.5583 142.534 30.6904 145.818 35.0104 145.818C39.1659 145.818 41.7155 142.793 41.7155 139.533C41.7155 136.496 39.2239 133.547 35.4764 133.547V133.545ZM34.7677 134.426C37.7793 134.426 39.1205 138.22 39.1205 140.927C39.1205 144.952 35.9983 145.032 35.625 145.032C34.1962 145.032 33.1977 144.197 32.4502 143.101C31.7922 142.092 31.149 140.216 31.149 138.384C31.149 136.558 31.7668 135.667 32.7391 135.011C33.5341 134.519 34.2786 134.426 34.7667 134.426H34.7677ZM63.4381 133.545C59.8331 133.545 57.8829 135.914 57.8829 138.559C57.8829 140.573 59.2727 142.845 62.1399 142.845H62.8653C62.8653 142.845 62.6677 143.343 62.6667 143.824C62.6667 144.534 62.9123 144.932 63.4339 145.546C58.5003 145.858 56.5175 147.923 56.5175 150.143C56.5175 152.087 58.3109 154 62.0797 154C66.5415 154 68.8524 151.429 68.8524 148.906C68.8524 147.127 67.9986 146.152 65.8364 144.47C65.2006 143.957 65.0774 143.631 65.0774 143.247C65.0774 142.707 65.3827 142.346 65.5038 142.203L65.5104 142.196C65.6454 142.048 65.8455 141.886 66.0042 141.758C66.0862 141.692 66.1571 141.635 66.2022 141.593C66.9287 140.954 67.9548 140.009 67.9548 138.122C67.9548 136.827 67.436 135.714 66.2542 134.671H67.697L68.7811 133.546H63.4381V133.545ZM62.4437 134.387C63.0978 134.387 63.6438 134.627 64.2206 135.125C64.8603 135.724 65.8825 137.333 65.8825 139.323C65.8825 141.471 64.2747 142.059 63.4045 142.059C62.9786 142.059 62.4682 141.935 62.0361 141.628C61.0763 140.982 60.1235 139.263 60.1235 137.216C60.1235 135.37 61.1832 134.387 62.4437 134.387ZM64.3439 146.384C64.3439 146.384 64.1462 146.361 63.8712 146.361C60.1694 146.415 58.8203 147.864 58.8203 149.548C58.8203 151.58 60.789 152.825 63.3647 152.825C65.7112 152.825 67.1601 151.554 67.1601 149.933C67.1601 148.753 66.502 148.091 65.4464 147.225C64.993 146.866 64.3439 146.384 64.3439 146.384ZM74.6335 145.818H69.3979L70.3573 144.874C70.5146 144.713 70.5879 144.557 70.5879 144.327V128.148H68.8524L70.0145 127H74.4793L73.535 127.933C73.4294 128.033 73.285 128.19 73.285 128.498V144.117C73.285 144.451 73.5252 144.796 73.9295 144.845L75.4311 145.03L74.6335 145.818ZM75.4311 139.438C75.4311 135.653 78.5744 133.545 81.5333 133.545H81.5344C84.6732 133.545 86.0392 135.171 86.5236 136.786L78.1368 139.954C78.9376 142.897 81.2266 144.499 83.6007 144.499C84.8501 144.499 85.7906 144.142 86.9437 143.598C86.3328 144.362 85.496 144.97 84.6264 145.344C83.8158 145.692 82.9506 145.818 81.8999 145.818C77.6863 145.818 75.4311 142.564 75.4311 139.438ZM83.7207 136.588C83.7207 135.632 82.5731 134.411 80.9855 134.411C79.936 134.411 77.8085 135.147 77.8085 137.897C77.8085 138.553 77.948 139.16 77.948 139.16L83.1032 137.211C83.5135 137.06 83.7207 136.897 83.7207 136.588ZM50.2784 133.545C46.0068 133.545 43.3602 136.564 43.3602 139.769C43.3602 142.534 45.4924 145.818 49.8123 145.818C53.9678 145.818 56.5175 142.793 56.5175 139.533C56.5175 136.496 54.0258 133.547 50.2784 133.547V133.545ZM49.5697 134.426C52.5813 134.426 53.9224 138.22 53.9224 140.927C53.9224 144.952 50.8002 145.032 50.4269 145.032C48.9982 145.032 47.9996 144.197 47.2521 143.101C46.5942 142.092 45.951 140.216 45.951 138.384C45.951 136.558 46.5687 135.667 47.541 135.011C48.3361 134.519 49.0805 134.426 49.5686 134.426H49.5697Z" fill="white"/>
<path fill-rule="evenodd" clip-rule="evenodd" d="M170.444 130.273V133.138L171.01 133.102C178.293 132.854 183.05 139.092 183.05 139.092C183.05 139.092 177.597 145.745 171.919 145.745C171.423 145.745 170.939 145.698 170.455 145.615V147.391C170.857 147.438 171.27 147.473 171.671 147.473C176.959 147.473 180.784 144.763 184.49 141.566C184.767 141.791 185.431 142.157 186.124 142.54C186.967 143.005 187.853 143.494 188.138 143.78C184.62 146.739 176.416 149.119 171.766 149.119C171.317 149.119 170.892 149.095 170.467 149.048V151.546H190.557V130.273H170.444ZM170.444 136.618V134.701L170.455 134.7V134.7C170.64 134.688 170.825 134.677 171.01 134.677C176.251 134.511 179.686 139.199 179.686 139.199C179.686 139.199 175.98 144.36 172.002 144.36C171.471 144.36 170.951 144.277 170.455 144.111V138.287C172.378 138.521 172.857 139.332 173.921 141.136C173.987 141.248 174.055 141.364 174.126 141.483L176.853 139.187C176.853 139.187 174.858 136.571 171.506 136.571C171.152 136.559 170.798 136.583 170.444 136.618ZM170.444 136.618V138.275H170.432C168.39 138.027 166.785 139.945 166.785 139.945C166.785 139.945 167.693 143.176 170.444 144.111V145.627C165.557 144.751 164.199 139.649 164.199 139.649C164.199 139.649 166.548 137.044 170.444 136.618ZM170.455 134.7L170.444 134.7V134.701C164.656 135.156 161.768 139.435 161.768 139.435C161.768 139.435 163.975 146.586 170.444 147.391V149.048C161.626 148.219 158.486 139.104 158.486 139.104C158.486 139.104 164.034 133.659 170.455 133.138V134.7ZM196.314 134.364V148.261H200.303V137.47L203.414 137.482C204.436 137.482 205.148 137.729 205.635 138.247C206.264 138.906 206.514 139.977 206.514 141.919V148.261H210.385V140.589C210.385 135.105 206.858 134.364 203.414 134.364H196.314ZM227.424 134.387V148.273H231.379V134.387H227.424ZM233.801 148.273V134.387H239.346C242.505 134.387 244.618 134.764 246.067 136.706C246.886 137.788 247.35 139.53 247.35 141.483C247.35 143.613 246.803 145.566 245.948 146.449C244.749 147.708 243.633 148.273 240.213 148.273H233.801ZM237.719 137.4H239.417C241.887 137.4 243.478 138.494 243.478 141.342C243.478 144.19 241.887 145.296 239.417 145.296H237.719V137.4ZM218.424 145.39L221.725 134.387H225.762L221.202 148.273H215.503L210.99 134.387H215.265L218.424 145.39ZM249.202 148.273H253.156V134.387H249.202V148.273ZM254.771 148.261L260.293 134.387H265.577L271.146 148.249H266.907L266.075 145.802H259.544L258.666 148.261H254.771ZM262.857 136.917L265.256 143.413H260.388L262.857 136.917Z" fill="white"/>
</svg>
